<svg xmlns="http://www.w3.org/2000/svg" xmlns:xlink="http://www.w3.org/1999/xlink" width="24" height="24" viewBox="0 0 24 24">
  <defs>
    <style>
      .cls-1 {
        clip-path: url(#clip-figma);
      }

      .cls-2 {
        fill: none;
        stroke: #000;
        stroke-linecap: round;
        stroke-linejoin: round;
        stroke-width: 1.5px;
      }
    </style>
    <clipPath id="clip-figma">
      <rect width="24" height="24"/>
    </clipPath>
  </defs>
  <g id="figma" class="cls-1">
    <g id="Group_2043" data-name="Group 2043">
      <g id="figma-2" data-name="figma" transform="translate(1.565 1.13)">
        <path id="Path_6308" data-name="Path 6308" class="cls-2" d="M4.348,4.783A3.043,3.043,0,0,1,7.391,1.739h3.043V7.826H7.391A3.043,3.043,0,0,1,4.348,4.783Z"/>
        <path id="Path_6309" data-name="Path 6309" class="cls-2" d="M10.435,1.739h3.043a3.043,3.043,0,0,1,0,6.087H10.435Z"/>
        <path id="Path_6310" data-name="Path 6310" class="cls-2" d="M10.435,10.87a3.043,3.043,0,1,1,3.043,3.043,3.043,3.043,0,0,1-3.043-3.043Z"/>
        <path id="Path_6311" data-name="Path 6311" class="cls-2" d="M4.348,16.957a3.043,3.043,0,0,1,3.043-3.043h3.043v3.043a3.043,3.043,0,1,1-6.087,0Z"/>
        <path id="Path_6312" data-name="Path 6312" class="cls-2" d="M4.348,10.87A3.043,3.043,0,0,1,7.391,7.826h3.043v6.087H7.391A3.043,3.043,0,0,1,4.348,10.87Z"/>
      </g>
    </g>
  </g>
</svg>
