<svg xmlns="http://www.w3.org/2000/svg" xmlns:xlink="http://www.w3.org/1999/xlink" width="24" height="24" viewBox="0 0 24 24">
  <defs>
    <style>
      .cls-1 {
        clip-path: url(#clip-github);
      }

      .cls-2 {
        fill: none;
        stroke: #000;
        stroke-linecap: round;
        stroke-linejoin: round;
        stroke-width: 1.5px;
      }
    </style>
    <clipPath id="clip-github">
      <rect width="24" height="24"/>
    </clipPath>
  </defs>
  <g id="github" class="cls-1">
    <g id="Group_2061" data-name="Group 2061">
      <path id="github-2" data-name="github" class="cls-2" d="M7.809,16.486c-4.339,1.3-4.339-2.169-6.074-2.6m12.148,5.206V15.731a2.924,2.924,0,0,0-.816-2.265c2.725-.3,5.588-1.336,5.588-6.074a4.72,4.72,0,0,0-1.3-3.253A4.4,4.4,0,0,0,17.276.868s-1.024-.3-3.393,1.284a11.61,11.61,0,0,0-6.074,0C5.44.564,4.417.868,4.417.868a4.4,4.4,0,0,0-.078,3.271,4.72,4.72,0,0,0-1.3,3.28c0,4.7,2.863,5.736,5.588,6.074a2.924,2.924,0,0,0-.816,2.239v3.358" transform="translate(1.897 2.043)"/>
    </g>
  </g>
</svg>
