<svg xmlns="http://www.w3.org/2000/svg" xmlns:xlink="http://www.w3.org/1999/xlink" width="24" height="24" viewBox="0 0 24 24">
  <defs>
    <style>
      .cls-1 {
        clip-path: url(#clip-headphones);
      }

      .cls-2 {
        fill: none;
        stroke: #000;
        stroke-linecap: round;
        stroke-linejoin: round;
        stroke-width: 1.5px;
      }
    </style>
    <clipPath id="clip-headphones">
      <rect width="24" height="24"/>
    </clipPath>
  </defs>
  <g id="headphones" class="cls-1">
    <g id="Group_2067" data-name="Group 2067">
      <g id="headphones-2" data-name="headphones">
        <path id="Path_6334" data-name="Path 6334" class="cls-2" d="M3,18V12a9,9,0,1,1,18,0v6"/>
        <path id="Path_6335" data-name="Path 6335" class="cls-2" d="M21,19a2,2,0,0,1-2,2H18a2,2,0,0,1-2-2V16a2,2,0,0,1,2-2h3ZM3,19a2,2,0,0,0,2,2H6a2,2,0,0,0,2-2V16a2,2,0,0,0-2-2H3Z"/>
      </g>
    </g>
  </g>
</svg>
