<svg xmlns="http://www.w3.org/2000/svg" xmlns:xlink="http://www.w3.org/1999/xlink" width="24" height="24" viewBox="0 0 24 24">
  <defs>
    <style>
      .cls-1 {
        clip-path: url(#clip-phone-call);
      }

      .cls-2 {
        fill: none;
        stroke: #000;
        stroke-linecap: round;
        stroke-linejoin: round;
        stroke-width: 1.5px;
      }
    </style>
    <clipPath id="clip-phone-call">
      <rect width="24" height="24"/>
    </clipPath>
  </defs>
  <g id="phone-call" class="cls-1">
    <g id="Group_2121" data-name="Group 2121">
      <path id="phone-call-2" data-name="phone-call" class="cls-2" d="M13.067,4.341a4.341,4.341,0,0,1,3.43,3.43m-3.43-6.9a7.814,7.814,0,0,1,6.9,6.894M19.1,14.691v2.6a1.737,1.737,0,0,1-1.893,1.737,17.183,17.183,0,0,1-7.493-2.666,16.931,16.931,0,0,1-5.21-5.21A17.183,17.183,0,0,1,1.841,3.629,1.737,1.737,0,0,1,3.569,1.737h2.6A1.737,1.737,0,0,1,7.91,3.23a11.149,11.149,0,0,0,.608,2.44A1.737,1.737,0,0,1,8.127,7.5l-1.1,1.1a13.892,13.892,0,0,0,5.21,5.21l1.1-1.1a1.737,1.737,0,0,1,1.832-.391,11.149,11.149,0,0,0,2.44.608A1.737,1.737,0,0,1,19.1,14.691Z" transform="translate(1.053 2.091)"/>
    </g>
  </g>
</svg>
