<svg xmlns="http://www.w3.org/2000/svg" xmlns:xlink="http://www.w3.org/1999/xlink" width="24" height="24" viewBox="0 0 24 24">
  <defs>
    <style>
      .cls-1 {
        clip-path: url(#clip-twitter);
      }

      .cls-2 {
        fill: none;
        stroke: #000;
        stroke-linecap: round;
        stroke-linejoin: round;
        stroke-width: 1.5px;
      }
    </style>
    <clipPath id="clip-twitter">
      <rect width="24" height="24"/>
    </clipPath>
  </defs>
  <g id="twitter" class="cls-1">
    <g id="Group_2192" data-name="Group 2192">
      <path id="twitter-2" data-name="twitter" class="cls-2" d="M19.167,2.5A9.083,9.083,0,0,1,16.55,3.775,3.733,3.733,0,0,0,10,6.275v.833A8.883,8.883,0,0,1,2.5,3.333s-3.333,7.5,4.167,10.833A9.7,9.7,0,0,1,.833,15.833C8.333,20,17.5,15.833,17.5,6.25a3.75,3.75,0,0,0-.067-.692A6.433,6.433,0,0,0,19.167,2.5Z" transform="translate(2 2.014)"/>
    </g>
  </g>
</svg>
