<svg xmlns="http://www.w3.org/2000/svg" viewBox="0 0 112.52 72"><defs><style>.a{fill:#0071ce;}</style></defs><path class="a" d="M103.11,64.13l-5-5.57-5.19,5.57H60.87V38.21H50.69l12.67-29H75.65l4.42,10v-10H95.43l2.69,7.48,2.68-7.48h11.72V4.8a4.76,4.76,0,0,0-4.8-4.8H4.8A4.75,4.75,0,0,0,0,4.8V67.2A4.75,4.75,0,0,0,4.8,72H107.72a4.76,4.76,0,0,0,4.8-4.8V64.13Z"/><polygon class="a" points="104.45 61.06 112.52 61.06 101.96 49.73 112.52 38.59 104.64 38.59 97.92 45.89 91.4 38.59 83.33 38.59 94.08 49.92 83.33 61.06 91.2 61.06 97.92 53.76 104.45 61.06"/><polygon class="a" points="70.47 55.87 70.47 52.42 83.14 52.42 83.14 47.23 70.47 47.23 70.47 43.78 83.33 43.78 83.33 38.59 64.32 38.59 64.32 61.06 83.33 61.06 83.33 55.87 70.47 55.87"/><polygon class="a" points="106.56 35.33 112.32 35.33 112.32 12.67 103.11 12.87 98.12 26.88 92.93 12.87 83.33 12.87 83.33 35.33 89.48 35.33 89.48 19.59 95.24 35.33 100.61 35.33 106.56 19.59 106.56 35.33"/><path class="a" d="M73.54,12.86H65.67l-10,22.47H62.4l1.92-4.42H74.69l1.92,4.42h6.91ZM66.43,25.73l3.08-7.3,3.07,7.3Z"/><polygon class="a" points="106.95 49.15 112.52 55.3 112.52 43.01 106.95 49.15"/></svg>