<svg xmlns="http://www.w3.org/2000/svg" width="156.33" height="24" viewBox="0 0 156.33 24"><defs><style>.a{fill:#1791e4;}.a,.b{opacity:0.5;}.b{fill:#f6921e;}.c{fill:#606060;}.d{fill:none;stroke:#666;stroke-linecap:round;stroke-linejoin:round;stroke-width:0.614px;}</style></defs><g transform="translate(-275 -490)"><circle class="a" cx="12" cy="12" r="12" transform="translate(275 490)"/><circle class="b" cx="12" cy="12" r="12" transform="translate(287 490)"/><g transform="translate(316.074 491.719)"><path class="c" d="M461.117,501.6h-5.184v15.724h-4.608V501.6h-5.184v-4.435h14.975Z" transform="translate(-446.142 -497.162)"/><path class="c" d="M510.576,530.828a3.759,3.759,0,0,0,2.765-1.094l3.456,1.987a7.306,7.306,0,0,1-6.278,2.966c-4.925,0-7.977-3.312-7.977-7.6a7.383,7.383,0,0,1,7.661-7.6,7.27,7.27,0,0,1,7.315,7.6,8.377,8.377,0,0,1-.173,1.728H507.12C507.667,530.309,508.992,530.828,510.576,530.828Zm2.65-5.241a3.244,3.244,0,0,0-6.192,0Z" transform="translate(-489.005 -514.124)"/><path class="c" d="M587.034,519.884v14.4h-4.32V532.93a5.41,5.41,0,0,1-4.291,1.757c-3.773,0-6.883-3.312-6.883-7.6s3.11-7.6,6.883-7.6a5.409,5.409,0,0,1,4.291,1.757v-1.354Zm-4.32,7.2a3.428,3.428,0,1,0-3.427,3.514A3.288,3.288,0,0,0,582.714,527.084Z" transform="translate(-541.444 -514.124)"/><path class="c" d="M670.9,525.442v8.841h-4.32v-8.467c0-1.44-.691-2.362-2.074-2.362-1.44,0-2.246,1.008-2.246,2.707v8.121h-4.32v-8.467c0-1.44-.691-2.362-2.074-2.362-1.44,0-2.246,1.008-2.246,2.707v8.121H649.3v-14.4h4.32v1.325a4.42,4.42,0,0,1,3.859-1.728,4.285,4.285,0,0,1,3.773,1.9,4.742,4.742,0,0,1,4.176-1.9C668.738,519.481,670.9,521.843,670.9,525.442Z" transform="translate(-600.541 -514.124)"/><path class="c" d="M756.693,530.828a3.759,3.759,0,0,0,2.765-1.094l3.456,1.987a7.307,7.307,0,0,1-6.278,2.966c-4.925,0-7.977-3.312-7.977-7.6a7.383,7.383,0,0,1,7.661-7.6,7.27,7.27,0,0,1,7.315,7.6,8.377,8.377,0,0,1-.173,1.728H753.237C753.784,530.309,755.109,530.828,756.693,530.828Zm2.65-5.241a3.244,3.244,0,0,0-6.192,0Z" transform="translate(-676.054 -514.124)"/><path class="c" d="M835.08,525.442v8.841h-4.32v-8.208a2.375,2.375,0,0,0-2.505-2.62c-1.584,0-2.678.922-2.678,2.966v7.862h-4.32v-14.4h4.32v1.354a4.925,4.925,0,0,1,4.118-1.757C832.6,519.481,835.08,521.554,835.08,525.442Z" transform="translate(-731.229 -514.124)"/><path class="c" d="M893.04,512.541v5.1c0,1.238,1.066,1.354,2.966,1.238v3.917c-5.645.576-7.286-1.123-7.286-5.155v-5.1h-2.3v-4.147h2.3v-2.736l4.32-1.3v4.032h2.966v4.147Z" transform="translate(-780.75 -502.634)"/></g><line class="d" y2="12.756" transform="translate(293 495.622)"/><line class="d" x1="1.482" y2="4.072" transform="translate(293 497.928)"/><line class="d" x2="1.482" y2="4.072" transform="translate(291.518 502)"/></g></svg>