<svg xmlns="http://www.w3.org/2000/svg" width="48" height="48" viewBox="0 0 48 48"><defs><style>.a{fill:none;}.b{fill:#f6921e;}.b,.c{opacity:0.5;}.c{fill:#1791e4;}</style></defs><g transform="translate(-28.99 -333.613)"><rect class="a" width="48" height="48" transform="translate(28.99 333.613)"/><g transform="translate(-397.256 187.437)"><circle class="b" cx="6.798" cy="6.798" r="6.798" transform="translate(434.292 146.176)"/><path class="c" d="M454.407,210.437v16.647h-8.324V210.437a4.994,4.994,0,1,0-9.988,0v16.647h-8.323V210.437a13.318,13.318,0,0,1,26.635,0Z" transform="translate(0 -32.908)"/><circle class="c" cx="6.798" cy="6.798" r="6.798" transform="translate(452.604 146.176)"/><path class="b" d="M506.133,210.437v16.647h-8.324V210.437a4.994,4.994,0,1,0-9.988,0v16.647H479.5V210.437a13.318,13.318,0,0,1,26.636,0Z" transform="translate(-33.413 -32.908)"/></g></g></svg>