<svg xmlns="http://www.w3.org/2000/svg" width="32" height="32" viewBox="0 0 32 32"><defs><style>.a{fill:#34be44;}.b{fill:none;stroke:#fff;stroke-linecap:round;stroke-linejoin:round;}</style></defs><circle class="a" cx="16" cy="16" r="16"/><g transform="translate(9.333 8)"><path class="b" d="M18,8h.762a3.127,3.127,0,0,1,3.048,3.2,3.127,3.127,0,0,1-3.048,3.2H18" transform="translate(-5.81 -2.4)"/><path class="b" d="M2,8H14.19v7.2a3.127,3.127,0,0,1-3.048,3.2h-6.1A3.127,3.127,0,0,1,2,15.2Z" transform="translate(-2 -2.4)"/><path class="b" d="M6,1V3.4" transform="translate(-2.952 -1)"/><path class="b" d="M10,1V3.4" transform="translate(-3.905 -1)"/><path class="b" d="M14,1V3.4" transform="translate(-4.857 -1)"/></g></svg>