<svg xmlns="http://www.w3.org/2000/svg" width="60" height="60" viewBox="0 0 60 60">
  <g id="Enterprise" transform="translate(-272 -85.508)">
    <g id="Layer_1" data-name="Layer 1" transform="translate(272 85.508)">
      <g id="Group_2186" data-name="Group 2186">
        <rect id="Rectangle_926" data-name="Rectangle 926" width="60" height="60" fill="none"/>
      </g>
    </g>
    <g id="Layer_2" data-name="Layer 2" transform="translate(273.375 86.611)">
      <g id="Group_2202" data-name="Group 2202">
        <g id="Group_2187" data-name="Group 2187" transform="translate(26.65 19.001)">
          <g id="Group_2" data-name="Group 2">
            <g id="Path_8" data-name="Path 8" opacity="0.7" style="isolation: isolate">
              <path id="Path_6362" data-name="Path 6362" d="M296.395,101.591a5.95,5.95,0,0,1,.525.525,5.82,5.82,0,0,1-.525,8.214,5.821,5.821,0,0,1,0-8.739Z" transform="translate(-294.42 -101.591)" fill="#fff"/>
            </g>
            <g id="Path_9" data-name="Path 9">
              <path id="Path_6363" data-name="Path 6363" d="M296.395,101.591a5.95,5.95,0,0,1,.525.525,5.82,5.82,0,0,1-.525,8.214,5.821,5.821,0,0,1,0-8.739Z" transform="translate(-294.42 -101.591)" fill="#fff"/>
            </g>
          </g>
          <g id="Group_3" data-name="Group 3" transform="translate(1.1 1.552)">
            <g id="Path_10" data-name="Path 10" transform="translate(0.835)">
              <path id="Path_6364" data-name="Path 6364" d="M296.093,108.467a.125.125,0,0,1-.125-.125v-5.384a.126.126,0,0,1,.251,0v5.384A.126.126,0,0,1,296.093,108.467Z" transform="translate(-295.968 -102.833)" fill="#fff"/>
            </g>
            <g id="Line_4" data-name="Line 4" transform="translate(0 0.665)">
              <path id="Path_6365" data-name="Path 6365" d="M296.26,105.352a.126.126,0,0,1-.112-.07l-.835-1.739a.125.125,0,0,1,.226-.108l.835,1.738a.124.124,0,0,1-.059.166A.122.122,0,0,1,296.26,105.352Z" transform="translate(-295.3 -103.365)" fill="#fff"/>
            </g>
            <g id="Line_5" data-name="Line 5" transform="translate(0.835 3.168)">
              <path id="Path_6366" data-name="Path 6366" d="M296.093,106.948a.124.124,0,0,1-.055-.014.125.125,0,0,1-.056-.169l.664-1.327a.125.125,0,1,1,.224.111l-.664,1.329A.126.126,0,0,1,296.093,106.948Z" transform="translate(-295.968 -105.368)" fill="#fff"/>
            </g>
          </g>
        </g>
        <g id="Group_2188" data-name="Group 2188" transform="translate(25.046)">
          <g id="Group_2-2" data-name="Group 2">
            <g id="Path_8-2" data-name="Path 8" opacity="0.7" style="isolation: isolate">
              <path id="Path_6367" data-name="Path 6367" d="M296.716,86.39a10.55,10.55,0,0,1,0,15.833,10.545,10.545,0,0,1,0-15.833Z" transform="translate(-293.137 -86.39)" fill="#fff"/>
            </g>
            <g id="Path_9-2" data-name="Path 9">
              <path id="Path_6368" data-name="Path 6368" d="M296.716,86.39a10.55,10.55,0,0,1,0,15.833,10.545,10.545,0,0,1,0-15.833Z" transform="translate(-293.137 -86.39)" fill="#fff"/>
            </g>
          </g>
          <g id="Group_3-2" data-name="Group 3" transform="translate(1.994 2.813)">
            <g id="Path_10-2" data-name="Path 10" transform="translate(1.512)">
              <path id="Path_6369" data-name="Path 6369" d="M296.169,98.849a.227.227,0,0,1-.228-.226V88.867a.227.227,0,1,1,.454,0v9.755A.226.226,0,0,1,296.169,98.849Z" transform="translate(-295.942 -88.64)" fill="#fff"/>
            </g>
            <g id="Line_4-2" data-name="Line 4" transform="translate(0 1.205)">
              <path id="Path_6370" data-name="Path 6370" d="M296.472,93.207a.228.228,0,0,1-.205-.13l-1.512-3.148a.227.227,0,0,1,.106-.3.225.225,0,0,1,.3.106l1.512,3.147a.225.225,0,0,1-.106.3A.212.212,0,0,1,296.472,93.207Z" transform="translate(-294.732 -89.604)" fill="#fff"/>
            </g>
            <g id="Line_5-2" data-name="Line 5" transform="translate(1.513 5.743)">
              <path id="Path_6371" data-name="Path 6371" d="M296.169,96.1a.219.219,0,0,1-.1-.024.227.227,0,0,1-.1-.3l1.2-2.408a.23.23,0,0,1,.3-.1.227.227,0,0,1,.1.3l-1.2,2.409A.228.228,0,0,1,296.169,96.1Z" transform="translate(-295.943 -93.234)" fill="#fff"/>
            </g>
          </g>
        </g>
        <g id="Group_2189" data-name="Group 2189" transform="translate(41.418 29.307)">
          <g id="Group_2-3" data-name="Group 2">
            <g id="Path_8-3" data-name="Path 8" opacity="0.7" style="isolation: isolate">
              <path id="Path_6372" data-name="Path 6372" d="M322.066,113.413a10.864,10.864,0,0,1-.951.952,10.544,10.544,0,0,1-14.881-.952,10.547,10.547,0,0,1,15.832,0Z" transform="translate(-306.234 -109.836)" fill="#fff"/>
            </g>
            <g id="Path_9-3" data-name="Path 9">
              <path id="Path_6373" data-name="Path 6373" d="M322.066,113.413a10.864,10.864,0,0,1-.951.952,10.544,10.544,0,0,1-14.881-.952,10.547,10.547,0,0,1,15.832,0Z" transform="translate(-306.234 -109.836)" fill="#fff"/>
            </g>
          </g>
          <g id="Group_3-3" data-name="Group 3" transform="translate(2.811 1.992)">
            <g id="Path_10-3" data-name="Path 10" transform="translate(0 1.513)">
              <path id="Path_6374" data-name="Path 6374" d="M318.464,113.1h-9.754a.228.228,0,1,1,0-.455h9.754a.228.228,0,1,1,0,.455Z" transform="translate(-308.483 -112.64)" fill="#fff"/>
            </g>
            <g id="Line_4-3" data-name="Line 4" transform="translate(5.402)">
              <path id="Path_6375" data-name="Path 6375" d="M313.031,113.4a.232.232,0,0,1-.2-.129.229.229,0,0,1,.106-.3l3.149-1.512a.228.228,0,0,1,.2.41l-3.149,1.512A.236.236,0,0,1,313.031,113.4Z" transform="translate(-312.804 -111.43)" fill="#fff"/>
            </g>
            <g id="Line_5-3" data-name="Line 5" transform="translate(1.606 1.514)">
              <path id="Path_6376" data-name="Path 6376" d="M312.4,114.3a.206.206,0,0,1-.1-.025l-2.407-1.2a.226.226,0,1,1,.2-.4l2.408,1.2a.227.227,0,0,1-.1.43Z" transform="translate(-309.768 -112.641)" fill="#fff"/>
            </g>
          </g>
        </g>
        <g id="Group_2190" data-name="Group 2190" transform="translate(0 29.307)">
          <g id="Group_2-4" data-name="Group 2">
            <g id="Path_8-4" data-name="Path 8" opacity="0.7" style="isolation: isolate">
              <path id="Path_6377" data-name="Path 6377" d="M281.016,109.836a10.517,10.517,0,0,1,7.916,3.577,10.544,10.544,0,0,1-14.881.952,10.864,10.864,0,0,1-.951-.952A10.519,10.519,0,0,1,281.016,109.836Z" transform="translate(-273.1 -109.836)" fill="#fff"/>
            </g>
            <g id="Path_9-4" data-name="Path 9">
              <path id="Path_6378" data-name="Path 6378" d="M281.016,109.836a10.517,10.517,0,0,1,7.916,3.577,10.544,10.544,0,0,1-14.881.952,10.864,10.864,0,0,1-.951-.952A10.519,10.519,0,0,1,281.016,109.836Z" transform="translate(-273.1 -109.836)" fill="#fff"/>
            </g>
          </g>
          <g id="Group_3-4" data-name="Group 3" transform="translate(2.813 1.992)">
            <g id="Path_10-4" data-name="Path 10" transform="translate(0 1.513)">
              <path id="Path_6379" data-name="Path 6379" d="M285.332,113.1h-9.755a.228.228,0,1,1,0-.455h9.755a.228.228,0,0,1,0,.455Z" transform="translate(-275.35 -112.64)" fill="#fff"/>
            </g>
            <g id="Line_4-4" data-name="Line 4" transform="translate(1.205)">
              <path id="Path_6380" data-name="Path 6380" d="M279.689,113.4a.232.232,0,0,1-.1-.023l-3.148-1.512a.227.227,0,0,1,.2-.41l3.148,1.512a.228.228,0,0,1-.1.433Z" transform="translate(-276.314 -111.43)" fill="#fff"/>
            </g>
            <g id="Line_5-4" data-name="Line 5" transform="translate(5.742 1.513)">
              <path id="Path_6381" data-name="Path 6381" d="M280.17,114.3a.227.227,0,0,1-.1-.43l2.408-1.2a.226.226,0,1,1,.2.4l-2.407,1.2A.213.213,0,0,1,280.17,114.3Z" transform="translate(-279.944 -112.64)" fill="#fff"/>
            </g>
          </g>
        </g>
        <g id="Group_2191" data-name="Group 2191" transform="translate(35.242 5.191)">
          <g id="Group_2-5" data-name="Group 2">
            <g id="Path_8-5" data-name="Path 8" opacity="0.7" style="isolation: isolate">
              <path id="Path_6382" data-name="Path 6382" d="M309.765,90.543a10.666,10.666,0,0,1,.349,1.3,10.543,10.543,0,0,1-8.265,12.411,10.548,10.548,0,0,1,7.916-13.711Z" transform="translate(-301.293 -90.543)" fill="#fff"/>
            </g>
            <g id="Path_9-5" data-name="Path 9">
              <path id="Path_6383" data-name="Path 6383" d="M309.765,90.543a10.666,10.666,0,0,1,.349,1.3,10.543,10.543,0,0,1-8.265,12.411,10.548,10.548,0,0,1,7.916-13.711Z" transform="translate(-301.293 -90.543)" fill="#fff"/>
            </g>
          </g>
          <g id="Group_3-5" data-name="Group 3" transform="translate(1.983 2.482)">
            <g id="Path_10-5" data-name="Path 10">
              <path id="Path_6384" data-name="Path 6384" d="M303.106,101.432a.223.223,0,0,1-.114-.031.228.228,0,0,1-.084-.31l4.877-8.447a.227.227,0,0,1,.394.226l-4.878,8.449A.229.229,0,0,1,303.106,101.432Z" transform="translate(-302.879 -92.529)" fill="#fff"/>
            </g>
            <g id="Line_4-5" data-name="Line 4" transform="translate(2.701 0.288)">
              <path id="Path_6385" data-name="Path 6385" d="M305.267,96.7h-.017a.225.225,0,0,1-.209-.242l.264-3.484a.243.243,0,0,1,.244-.209.227.227,0,0,1,.209.244l-.264,3.482A.228.228,0,0,1,305.267,96.7Z" transform="translate(-305.04 -92.759)" fill="#fff"/>
            </g>
            <g id="Line_5-5" data-name="Line 5" transform="translate(0.802 5.574)">
              <path id="Path_6386" data-name="Path 6386" d="M303.748,98.927a.227.227,0,0,1-.125-.416l2.246-1.484a.226.226,0,0,1,.25.378l-2.246,1.484A.223.223,0,0,1,303.748,98.927Z" transform="translate(-303.521 -96.988)" fill="#fff"/>
            </g>
          </g>
        </g>
        <g id="Group_2192" data-name="Group 2192" transform="translate(40.489 16.692)">
          <g id="Group_2-6" data-name="Group 2">
            <g id="Path_8-6" data-name="Path 8" opacity="0.7" style="isolation: isolate">
              <path id="Path_6387" data-name="Path 6387" d="M319.2,100.3a10.55,10.55,0,0,1-13.712,7.916A10.546,10.546,0,0,1,319.2,100.3Z" transform="translate(-305.491 -99.744)" fill="#fff"/>
            </g>
            <g id="Path_9-6" data-name="Path 9">
              <path id="Path_6388" data-name="Path 6388" d="M319.2,100.3a10.55,10.55,0,0,1-13.712,7.916A10.546,10.546,0,0,1,319.2,100.3Z" transform="translate(-305.491 -99.744)" fill="#fff"/>
            </g>
          </g>
          <g id="Group_3-6" data-name="Group 3" transform="translate(2.483 1.274)">
            <g id="Path_10-6" data-name="Path 10" transform="translate(0 0.708)">
              <path id="Path_6389" data-name="Path 6389" d="M307.7,106.661a.227.227,0,0,1-.114-.424l8.447-4.877a.227.227,0,1,1,.226.394l-8.446,4.876A.223.223,0,0,1,307.7,106.661Z" transform="translate(-307.478 -101.33)" fill="#fff"/>
            </g>
            <g id="Line_4-6" data-name="Line 4" transform="translate(4.678)">
              <path id="Path_6390" data-name="Path 6390" d="M311.446,104.1a.231.231,0,0,1-.127-.039.227.227,0,0,1-.059-.316l1.97-2.884a.223.223,0,0,1,.315-.059.227.227,0,0,1,.06.315L311.634,104A.228.228,0,0,1,311.446,104.1Z" transform="translate(-311.22 -100.763)" fill="#fff"/>
            </g>
            <g id="Line_5-6" data-name="Line 5" transform="translate(1.389 4.622)">
              <path id="Path_6391" data-name="Path 6391" d="M308.817,105.076a.227.227,0,0,1-.014-.454l2.688-.161a.236.236,0,0,1,.24.214.226.226,0,0,1-.214.239l-2.687.161Z" transform="translate(-308.589 -104.461)" fill="#fff"/>
            </g>
          </g>
        </g>
        <g id="Group_2193" data-name="Group 2193" transform="translate(3.049 16.692)">
          <g id="Group_2-7" data-name="Group 2">
            <g id="Path_8-7" data-name="Path 8" opacity="0.7" style="isolation: isolate">
              <path id="Path_6392" data-name="Path 6392" d="M284.184,101.159a10.52,10.52,0,0,1,5.068,7.057,10.55,10.55,0,0,1-13.713-7.916A10.518,10.518,0,0,1,284.184,101.159Z" transform="translate(-275.539 -99.744)" fill="#fff"/>
            </g>
            <g id="Path_9-7" data-name="Path 9">
              <path id="Path_6393" data-name="Path 6393" d="M284.184,101.159a10.52,10.52,0,0,1,5.068,7.057,10.55,10.55,0,0,1-13.713-7.916A10.518,10.518,0,0,1,284.184,101.159Z" transform="translate(-275.539 -99.744)" fill="#fff"/>
            </g>
          </g>
          <g id="Group_3-7" data-name="Group 3" transform="translate(2.328 1.274)">
            <g id="Path_10-7" data-name="Path 10" transform="translate(0 0.708)">
              <path id="Path_6394" data-name="Path 6394" d="M286.076,106.661a.219.219,0,0,1-.112-.031l-8.449-4.876a.227.227,0,0,1,.228-.394l8.448,4.877a.227.227,0,0,1-.114.424Z" transform="translate(-277.402 -101.33)" fill="#fff"/>
            </g>
            <g id="Line_4-7" data-name="Line 4" transform="translate(1.8)">
              <path id="Path_6395" data-name="Path 6395" d="M281.038,104.1a.228.228,0,0,1-.187-.1l-1.97-2.884a.227.227,0,0,1,.059-.315.224.224,0,0,1,.315.059l1.971,2.884a.227.227,0,0,1-.187.355Z" transform="translate(-278.841 -100.763)" fill="#fff"/>
            </g>
            <g id="Line_5-7" data-name="Line 5" transform="translate(4.371 4.622)">
              <path id="Path_6396" data-name="Path 6396" d="M283.812,105.076H283.8l-2.686-.161a.225.225,0,0,1-.213-.239.249.249,0,0,1,.239-.214l2.688.161a.227.227,0,0,1-.014.454Z" transform="translate(-280.899 -104.461)" fill="#fff"/>
            </g>
          </g>
        </g>
        <g id="Group_2194" data-name="Group 2194" transform="translate(12.98 5.191)">
          <g id="Group_2-8" data-name="Group 2">
            <g id="Path_8-8" data-name="Path 8" opacity="0.7" style="isolation: isolate">
              <path id="Path_6397" data-name="Path 6397" d="M291.1,95.61a10.516,10.516,0,0,1,.86,8.644,10.543,10.543,0,0,1-8.265-12.411,10.666,10.666,0,0,1,.349-1.3A10.518,10.518,0,0,1,291.1,95.61Z" transform="translate(-283.484 -90.543)" fill="#fff"/>
            </g>
            <g id="Path_9-8" data-name="Path 9">
              <path id="Path_6398" data-name="Path 6398" d="M291.1,95.61a10.516,10.516,0,0,1,.86,8.644,10.543,10.543,0,0,1-8.265-12.411,10.666,10.666,0,0,1,.349-1.3A10.518,10.518,0,0,1,291.1,95.61Z" transform="translate(-283.484 -90.543)" fill="#fff"/>
            </g>
          </g>
          <g id="Group_3-8" data-name="Group 3" transform="translate(1.715 2.482)">
            <g id="Path_10-8" data-name="Path 10">
              <path id="Path_6399" data-name="Path 6399" d="M289.96,101.432a.229.229,0,0,1-.2-.114l-4.878-8.449a.227.227,0,1,1,.393-.226l4.878,8.447a.227.227,0,0,1-.083.31A.223.223,0,0,1,289.96,101.432Z" transform="translate(-284.856 -92.529)" fill="#fff"/>
            </g>
            <g id="Line_4-8" data-name="Line 4" transform="translate(1.912 0.288)">
              <path id="Path_6400" data-name="Path 6400" d="M286.876,96.7a.228.228,0,0,1-.226-.21L286.386,93a.228.228,0,0,1,.209-.244.241.241,0,0,1,.244.209l.265,3.484a.227.227,0,0,1-.21.242Z" transform="translate(-286.386 -92.759)" fill="#fff"/>
            </g>
            <g id="Line_5-8" data-name="Line 5" transform="translate(1.829 5.574)">
              <path id="Path_6401" data-name="Path 6401" d="M288.791,98.927a.22.22,0,0,1-.125-.039L286.42,97.4a.226.226,0,0,1,.25-.378l2.246,1.484a.227.227,0,0,1-.125.416Z" transform="translate(-286.319 -96.988)" fill="#fff"/>
            </g>
          </g>
        </g>
        <g id="Group_2195" data-name="Group 2195" transform="translate(32.365 23.239)">
          <g id="Group_2-9" data-name="Group 2">
            <g id="Path_8-9" data-name="Path 8" opacity="0.7" style="isolation: isolate">
              <path id="Path_6402" data-name="Path 6402" d="M303.668,104.981a5.726,5.726,0,0,1,.191.717,5.819,5.819,0,0,1-4.56,6.85,5.82,5.82,0,0,1,4.369-7.568Z" transform="translate(-298.992 -104.981)" fill="#fff"/>
            </g>
            <g id="Path_9-9" data-name="Path 9">
              <path id="Path_6403" data-name="Path 6403" d="M303.668,104.981a5.726,5.726,0,0,1,.191.717,5.819,5.819,0,0,1-4.56,6.85,5.82,5.82,0,0,1,4.369-7.568Z" transform="translate(-298.992 -104.981)" fill="#fff"/>
            </g>
          </g>
          <g id="Group_3-9" data-name="Group 3" transform="translate(1.094 1.37)">
            <g id="Path_10-9" data-name="Path 10">
              <path id="Path_6404" data-name="Path 6404" d="M299.992,110.989a.125.125,0,0,1-.109-.187l2.692-4.663a.126.126,0,1,1,.218.126l-2.693,4.661A.124.124,0,0,1,299.992,110.989Z" transform="translate(-299.867 -106.077)" fill="#fff"/>
            </g>
            <g id="Line_4-9" data-name="Line 4" transform="translate(1.491 0.158)">
              <path id="Path_6405" data-name="Path 6405" d="M301.185,108.377h-.01a.127.127,0,0,1-.115-.135l.146-1.923a.118.118,0,0,1,.135-.115.127.127,0,0,1,.115.135l-.146,1.921A.125.125,0,0,1,301.185,108.377Z" transform="translate(-301.06 -106.204)" fill="#fff"/>
            </g>
            <g id="Line_5-9" data-name="Line 5" transform="translate(0.443 3.076)">
              <path id="Path_6406" data-name="Path 6406" d="M300.347,109.608a.127.127,0,0,1-.1-.056.125.125,0,0,1,.036-.174l1.239-.819a.125.125,0,1,1,.139.209l-1.24.819A.127.127,0,0,1,300.347,109.608Z" transform="translate(-300.222 -108.538)" fill="#fff"/>
            </g>
          </g>
        </g>
        <g id="Group_2196" data-name="Group 2196" transform="translate(19.903 23.239)">
          <g id="Group_2-10" data-name="Group 2">
            <g id="Path_8-10" data-name="Path 8" opacity="0.7" style="isolation: isolate">
              <path id="Path_6407" data-name="Path 6407" d="M293.223,107.777a5.8,5.8,0,0,1,.475,4.771,5.819,5.819,0,0,1-4.561-6.85,5.731,5.731,0,0,1,.193-.717A5.8,5.8,0,0,1,293.223,107.777Z" transform="translate(-289.022 -104.981)" fill="#fff"/>
            </g>
            <g id="Path_9-10" data-name="Path 9">
              <path id="Path_6408" data-name="Path 6408" d="M293.223,107.777a5.8,5.8,0,0,1,.475,4.771,5.819,5.819,0,0,1-4.561-6.85,5.731,5.731,0,0,1,.193-.717A5.8,5.8,0,0,1,293.223,107.777Z" transform="translate(-289.022 -104.981)" fill="#fff"/>
            </g>
          </g>
          <g id="Group_3-10" data-name="Group 3" transform="translate(0.946 1.371)">
            <g id="Path_10-10" data-name="Path 10">
              <path id="Path_6409" data-name="Path 6409" d="M292.6,110.989a.124.124,0,0,1-.109-.062l-2.691-4.661a.126.126,0,0,1,.045-.173.128.128,0,0,1,.171.046l2.693,4.663a.125.125,0,0,1-.109.188Z" transform="translate(-289.779 -106.078)" fill="#fff"/>
            </g>
            <g id="Line_4-10" data-name="Line 4" transform="translate(1.056 0.157)">
              <path id="Path_6410" data-name="Path 6410" d="M290.894,108.377a.127.127,0,0,1-.125-.116l-.145-1.921a.126.126,0,0,1,.115-.135.12.12,0,0,1,.135.115l.146,1.923a.128.128,0,0,1-.116.135Z" transform="translate(-290.624 -106.204)" fill="#fff"/>
            </g>
            <g id="Line_5-10" data-name="Line 5" transform="translate(1.009 3.076)">
              <path id="Path_6411" data-name="Path 6411" d="M291.951,109.608a.127.127,0,0,1-.069-.021l-1.24-.819a.125.125,0,1,1,.139-.209l1.24.819a.126.126,0,0,1-.07.23Z" transform="translate(-290.586 -108.538)" fill="#fff"/>
            </g>
          </g>
        </g>
        <g id="Group_2197" data-name="Group 2197" transform="translate(28.625 30.433)">
          <path id="Path_6412" data-name="Path 6412" d="M296,110.736" transform="translate(-296 -110.736)" fill="#fff"/>
        </g>
        <g id="Group_2198" data-name="Group 2198" transform="translate(28.625 30.433)">
          <path id="Path_6413" data-name="Path 6413" d="M296,110.736" transform="translate(-296 -110.736)" fill="#fff"/>
        </g>
        <g id="Group_2199" data-name="Group 2199" transform="translate(23.521 30.433)">
          <path id="Path_6414" data-name="Path 6414" d="M297.021,138.1h4.04a1.064,1.064,0,0,0,1.056-1.194l-3.1-25.234a1.064,1.064,0,0,0-1.056-.934h-1.875a1.064,1.064,0,0,0-1.056.934l-3.1,25.234a1.064,1.064,0,0,0,1.056,1.194Z" transform="translate(-291.917 -110.736)" fill="#fff"/>
        </g>
        <g id="Group_2200" data-name="Group 2200" transform="translate(28.994 32.704)">
          <path id="Path_6415" data-name="Path 6415" d="M297.309,119.061l.915.915a.341.341,0,0,0,.51-.031l5.011-6.416a.342.342,0,0,0-.028-.451l-.213-.212-.211-.211a.34.34,0,0,0-.451-.028l-6.416,5.011a.34.34,0,0,0-.031.509Z" transform="translate(-296.295 -112.553)" fill="#fff"/>
        </g>
        <g id="Group_2201" data-name="Group 2201" transform="translate(21.124 39.541)">
          <path id="Path_6416" data-name="Path 6416" d="M296.508,124.531l.915-.915a.341.341,0,0,0-.031-.509l-6.417-5.011a.339.339,0,0,0-.45.027l-.212.211-.213.213a.342.342,0,0,0-.027.451l5.011,6.416a.341.341,0,0,0,.51.031Z" transform="translate(-289.999 -118.023)" fill="#fff"/>
        </g>
      </g>
    </g>
  </g>
</svg>
