<svg xmlns="http://www.w3.org/2000/svg" width="60" height="60" viewBox="0 0 60 60">
  <g id="Group3" transform="translate(-272 -85.508)">
    <g id="Grupo_16" data-name="Grupo 16" transform="translate(272 85.508)">
      <rect id="Rectángulo_3" data-name="Rectángulo 3" width="60" height="60" fill="none"/>
    </g>
    <g id="Grupo_78" data-name="Grupo 78" transform="translate(273.375 86.611)">
      <g id="Grupo_22" data-name="Grupo 22" transform="translate(26.65 19.001)">
        <g id="Grupo_17" data-name="Grupo 17" opacity="0.7" style="isolation: isolate">
          <path id="Trazado_14" data-name="Trazado 14" d="M296.395,101.591a5.951,5.951,0,0,1,.525.525,5.82,5.82,0,0,1-.525,8.214,5.821,5.821,0,0,1,0-8.739Z" transform="translate(-294.42 -101.591)" fill="#53bfb6"/>
        </g>
        <path id="Trazado_15" data-name="Trazado 15" d="M296.395,101.591a5.951,5.951,0,0,1,.525.525,5.82,5.82,0,0,1-.525,8.214,5.821,5.821,0,0,1,0-8.739Z" transform="translate(-294.42 -101.591)" fill="#53bfb6"/>
        <g id="Grupo_21" data-name="Grupo 21" transform="translate(1.1 1.552)">
          <g id="Grupo_18" data-name="Grupo 18" transform="translate(0.835)">
            <path id="Trazado_16" data-name="Trazado 16" d="M296.093,108.467a.125.125,0,0,1-.125-.125v-5.384a.126.126,0,0,1,.251,0v5.384a.126.126,0,0,1-.126.125Z" transform="translate(-295.968 -102.833)" fill="gray"/>
          </g>
          <g id="Grupo_19" data-name="Grupo 19" transform="translate(0 0.665)">
            <path id="Trazado_17" data-name="Trazado 17" d="M296.26,105.352a.126.126,0,0,1-.112-.07l-.835-1.739a.125.125,0,0,1,.226-.108l.835,1.738a.124.124,0,0,1-.059.166.122.122,0,0,1-.055.013Z" transform="translate(-295.3 -103.365)" fill="gray"/>
          </g>
          <g id="Grupo_20" data-name="Grupo 20" transform="translate(0.835 3.168)">
            <path id="Trazado_18" data-name="Trazado 18" d="M296.093,106.948a.126.126,0,0,1-.111-.183l.664-1.327a.125.125,0,1,1,.224.111l-.664,1.329a.126.126,0,0,1-.113.07Z" transform="translate(-295.968 -105.368)" fill="gray"/>
          </g>
        </g>
      </g>
      <g id="Grupo_28" data-name="Grupo 28" transform="translate(25.046)">
        <g id="Grupo_23" data-name="Grupo 23" opacity="0.7" style="isolation: isolate">
          <path id="Trazado_19" data-name="Trazado 19" d="M296.716,86.39a10.55,10.55,0,0,1,0,15.833,10.545,10.545,0,0,1,0-15.833Z" transform="translate(-293.137 -86.39)" fill="#53bfb6"/>
        </g>
        <path id="Trazado_20" data-name="Trazado 20" d="M296.716,86.39a10.55,10.55,0,0,1,0,15.833,10.545,10.545,0,0,1,0-15.833Z" transform="translate(-293.137 -86.39)" fill="#53bfb6"/>
        <g id="Grupo_27" data-name="Grupo 27" transform="translate(1.994 2.813)">
          <g id="Grupo_24" data-name="Grupo 24" transform="translate(1.512)">
            <path id="Trazado_21" data-name="Trazado 21" d="M296.169,98.849a.227.227,0,0,1-.228-.226V88.867a.227.227,0,1,1,.454,0v9.755a.226.226,0,0,1-.226.227Z" transform="translate(-295.942 -88.64)" fill="gray"/>
          </g>
          <g id="Grupo_25" data-name="Grupo 25" transform="translate(0 1.205)">
            <path id="Trazado_22" data-name="Trazado 22" d="M296.472,93.207a.228.228,0,0,1-.2-.13l-1.512-3.148a.225.225,0,1,1,.406-.194l1.512,3.147a.225.225,0,0,1-.106.3.212.212,0,0,1-.1.025Z" transform="translate(-294.732 -89.604)" fill="gray"/>
          </g>
          <g id="Grupo_26" data-name="Grupo 26" transform="translate(1.513 5.743)">
            <path id="Trazado_23" data-name="Trazado 23" d="M296.169,96.1a.219.219,0,0,1-.1-.024.227.227,0,0,1-.1-.3l1.2-2.408a.23.23,0,0,1,.3-.1.227.227,0,0,1,.1.3l-1.2,2.409a.228.228,0,0,1-.2.123Z" transform="translate(-295.943 -93.234)" fill="gray"/>
          </g>
        </g>
      </g>
      <g id="Grupo_34" data-name="Grupo 34" transform="translate(41.418 29.307)">
        <g id="Grupo_29" data-name="Grupo 29" opacity="0.7" style="isolation: isolate">
          <path id="Trazado_24" data-name="Trazado 24" d="M322.066,113.413a10.865,10.865,0,0,1-.951.952,10.544,10.544,0,0,1-14.881-.952,10.547,10.547,0,0,1,15.832,0Z" transform="translate(-306.234 -109.836)" fill="#53bfb6"/>
        </g>
        <path id="Trazado_25" data-name="Trazado 25" d="M322.066,113.413a10.865,10.865,0,0,1-.951.952,10.544,10.544,0,0,1-14.881-.952,10.547,10.547,0,0,1,15.832,0Z" transform="translate(-306.234 -109.836)" fill="#53bfb6"/>
        <g id="Grupo_33" data-name="Grupo 33" transform="translate(2.811 1.992)">
          <g id="Grupo_30" data-name="Grupo 30" transform="translate(0 1.513)">
            <path id="Trazado_26" data-name="Trazado 26" d="M318.464,113.1H308.71a.228.228,0,1,1,0-.455h9.754a.228.228,0,1,1,0,.455Z" transform="translate(-308.483 -112.64)" fill="gray"/>
          </g>
          <g id="Grupo_31" data-name="Grupo 31" transform="translate(5.402)">
            <path id="Trazado_27" data-name="Trazado 27" d="M313.031,113.4a.232.232,0,0,1-.2-.129.229.229,0,0,1,.106-.3l3.149-1.512a.228.228,0,1,1,.2.41l-3.149,1.512a.236.236,0,0,1-.106.019Z" transform="translate(-312.804 -111.43)" fill="gray"/>
          </g>
          <g id="Grupo_32" data-name="Grupo 32" transform="translate(1.606 1.514)">
            <path id="Trazado_28" data-name="Trazado 28" d="M312.4,114.3a.206.206,0,0,1-.1-.025l-2.407-1.2a.226.226,0,1,1,.2-.4l2.408,1.2a.227.227,0,0,1-.1.43Z" transform="translate(-309.768 -112.641)" fill="gray"/>
          </g>
        </g>
      </g>
      <g id="Grupo_40" data-name="Grupo 40" transform="translate(0 29.307)">
        <g id="Grupo_35" data-name="Grupo 35" opacity="0.7" style="isolation: isolate">
          <path id="Trazado_29" data-name="Trazado 29" d="M281.016,109.836a10.517,10.517,0,0,1,7.916,3.577,10.544,10.544,0,0,1-14.881.952,10.868,10.868,0,0,1-.951-.952,10.519,10.519,0,0,1,7.916-3.577Z" transform="translate(-273.1 -109.836)" fill="#53bfb6"/>
        </g>
        <path id="Trazado_30" data-name="Trazado 30" d="M281.016,109.836a10.517,10.517,0,0,1,7.916,3.577,10.544,10.544,0,0,1-14.881.952,10.868,10.868,0,0,1-.951-.952,10.519,10.519,0,0,1,7.916-3.577Z" transform="translate(-273.1 -109.836)" fill="#53bfb6"/>
        <g id="Grupo_39" data-name="Grupo 39" transform="translate(2.813 1.992)">
          <g id="Grupo_36" data-name="Grupo 36" transform="translate(0 1.513)">
            <path id="Trazado_31" data-name="Trazado 31" d="M285.332,113.1h-9.755a.228.228,0,1,1,0-.455h9.755a.228.228,0,0,1,0,.455Z" transform="translate(-275.35 -112.64)" fill="gray"/>
          </g>
          <g id="Grupo_37" data-name="Grupo 37" transform="translate(1.205)">
            <path id="Trazado_32" data-name="Trazado 32" d="M279.689,113.4a.232.232,0,0,1-.1-.023l-3.148-1.512a.228.228,0,0,1,.2-.41l3.148,1.512a.228.228,0,0,1-.1.433Z" transform="translate(-276.314 -111.43)" fill="gray"/>
          </g>
          <g id="Grupo_38" data-name="Grupo 38" transform="translate(5.742 1.513)">
            <path id="Trazado_33" data-name="Trazado 33" d="M280.17,114.3a.227.227,0,0,1-.1-.43l2.408-1.2a.226.226,0,1,1,.2.4l-2.407,1.2A.213.213,0,0,1,280.17,114.3Z" transform="translate(-279.944 -112.64)" fill="gray"/>
          </g>
        </g>
      </g>
      <g id="Grupo_45" data-name="Grupo 45" transform="translate(35.242 5.191)">
        <g id="Grupo_41" data-name="Grupo 41" opacity="0.7" style="isolation: isolate">
          <path id="Trazado_34" data-name="Trazado 34" d="M309.765,90.543a10.67,10.67,0,0,1,.349,1.3,10.543,10.543,0,0,1-8.265,12.411,10.548,10.548,0,0,1,7.916-13.711Z" transform="translate(-301.293 -90.543)" fill="#53bfb6"/>
        </g>
        <path id="Trazado_35" data-name="Trazado 35" d="M309.765,90.543a10.67,10.67,0,0,1,.349,1.3,10.543,10.543,0,0,1-8.265,12.411,10.548,10.548,0,0,1,7.916-13.711Z" transform="translate(-301.293 -90.543)" fill="#53bfb6"/>
        <g id="Grupo_44" data-name="Grupo 44" transform="translate(1.983 2.482)">
          <path id="Trazado_36" data-name="Trazado 36" d="M303.106,101.432a.223.223,0,0,1-.114-.031.228.228,0,0,1-.084-.31l4.877-8.447a.227.227,0,1,1,.394.226l-4.878,8.449a.229.229,0,0,1-.2.113Z" transform="translate(-302.879 -92.529)" fill="gray"/>
          <g id="Grupo_42" data-name="Grupo 42" transform="translate(2.701 0.288)">
            <path id="Trazado_37" data-name="Trazado 37" d="M305.267,96.7h-.017a.225.225,0,0,1-.209-.242l.264-3.484a.243.243,0,0,1,.244-.209.227.227,0,0,1,.209.244l-.264,3.482a.228.228,0,0,1-.227.209Z" transform="translate(-305.04 -92.759)" fill="gray"/>
          </g>
          <g id="Grupo_43" data-name="Grupo 43" transform="translate(0.802 5.574)">
            <path id="Trazado_38" data-name="Trazado 38" d="M303.748,98.927a.227.227,0,0,1-.125-.416l2.246-1.484a.227.227,0,0,1,.25.378l-2.246,1.484a.223.223,0,0,1-.125.038Z" transform="translate(-303.521 -96.988)" fill="gray"/>
          </g>
        </g>
      </g>
      <g id="Grupo_51" data-name="Grupo 51" transform="translate(40.489 16.692)">
        <g id="Grupo_46" data-name="Grupo 46" opacity="0.7" style="isolation: isolate">
          <path id="Trazado_39" data-name="Trazado 39" d="M319.2,100.3a10.55,10.55,0,0,1-13.712,7.916A10.546,10.546,0,0,1,319.2,100.3Z" transform="translate(-305.491 -99.744)" fill="#53bfb6"/>
        </g>
        <path id="Trazado_40" data-name="Trazado 40" d="M319.2,100.3a10.55,10.55,0,0,1-13.712,7.916A10.546,10.546,0,0,1,319.2,100.3Z" transform="translate(-305.491 -99.744)" fill="#53bfb6"/>
        <g id="Grupo_50" data-name="Grupo 50" transform="translate(2.483 1.274)">
          <g id="Grupo_47" data-name="Grupo 47" transform="translate(0 0.708)">
            <path id="Trazado_41" data-name="Trazado 41" d="M307.7,106.661a.227.227,0,0,1-.114-.424l8.447-4.877a.227.227,0,0,1,.226.394l-8.446,4.876A.223.223,0,0,1,307.7,106.661Z" transform="translate(-307.478 -101.33)" fill="gray"/>
          </g>
          <g id="Grupo_48" data-name="Grupo 48" transform="translate(4.678)">
            <path id="Trazado_42" data-name="Trazado 42" d="M311.446,104.1a.231.231,0,0,1-.127-.039.227.227,0,0,1-.059-.316l1.97-2.884a.223.223,0,0,1,.315-.059.227.227,0,0,1,.06.315L311.634,104a.228.228,0,0,1-.188.1Z" transform="translate(-311.22 -100.763)" fill="gray"/>
          </g>
          <g id="Grupo_49" data-name="Grupo 49" transform="translate(1.389 4.622)">
            <path id="Trazado_43" data-name="Trazado 43" d="M308.817,105.076a.227.227,0,0,1-.014-.454l2.688-.161a.236.236,0,0,1,.24.214.226.226,0,0,1-.214.239l-2.687.161Z" transform="translate(-308.589 -104.461)" fill="gray"/>
          </g>
        </g>
      </g>
      <g id="Grupo_57" data-name="Grupo 57" transform="translate(3.049 16.692)">
        <g id="Grupo_52" data-name="Grupo 52" opacity="0.7" style="isolation: isolate">
          <path id="Trazado_44" data-name="Trazado 44" d="M284.184,101.159a10.52,10.52,0,0,1,5.068,7.057,10.55,10.55,0,0,1-13.713-7.916,10.518,10.518,0,0,1,8.645.859Z" transform="translate(-275.539 -99.744)" fill="#53bfb6"/>
        </g>
        <path id="Trazado_45" data-name="Trazado 45" d="M284.184,101.159a10.52,10.52,0,0,1,5.068,7.057,10.55,10.55,0,0,1-13.713-7.916,10.518,10.518,0,0,1,8.645.859Z" transform="translate(-275.539 -99.744)" fill="#53bfb6"/>
        <g id="Grupo_56" data-name="Grupo 56" transform="translate(2.328 1.274)">
          <g id="Grupo_53" data-name="Grupo 53" transform="translate(0 0.708)">
            <path id="Trazado_46" data-name="Trazado 46" d="M286.076,106.661a.219.219,0,0,1-.112-.031l-8.449-4.876a.228.228,0,0,1,.228-.394l8.448,4.877a.227.227,0,0,1-.114.424Z" transform="translate(-277.402 -101.33)" fill="gray"/>
          </g>
          <g id="Grupo_54" data-name="Grupo 54" transform="translate(1.8)">
            <path id="Trazado_47" data-name="Trazado 47" d="M281.038,104.1a.228.228,0,0,1-.187-.1l-1.97-2.884a.227.227,0,0,1,.059-.315.224.224,0,0,1,.315.059l1.971,2.884a.227.227,0,0,1-.187.355Z" transform="translate(-278.841 -100.763)" fill="gray"/>
          </g>
          <g id="Grupo_55" data-name="Grupo 55" transform="translate(4.371 4.622)">
            <path id="Trazado_48" data-name="Trazado 48" d="M283.812,105.076H283.8l-2.686-.161a.225.225,0,0,1-.213-.239.249.249,0,0,1,.239-.214l2.688.161a.227.227,0,0,1-.014.454Z" transform="translate(-280.899 -104.461)" fill="gray"/>
          </g>
        </g>
      </g>
      <g id="Grupo_62" data-name="Grupo 62" transform="translate(12.98 5.191)">
        <g id="Grupo_58" data-name="Grupo 58" opacity="0.7" style="isolation: isolate">
          <path id="Trazado_49" data-name="Trazado 49" d="M291.1,95.61a10.516,10.516,0,0,1,.86,8.644,10.543,10.543,0,0,1-8.265-12.411,10.665,10.665,0,0,1,.349-1.3A10.518,10.518,0,0,1,291.1,95.61Z" transform="translate(-283.484 -90.543)" fill="#53bfb6"/>
        </g>
        <path id="Trazado_50" data-name="Trazado 50" d="M291.1,95.61a10.516,10.516,0,0,1,.86,8.644,10.543,10.543,0,0,1-8.265-12.411,10.665,10.665,0,0,1,.349-1.3A10.518,10.518,0,0,1,291.1,95.61Z" transform="translate(-283.484 -90.543)" fill="#53bfb6"/>
        <g id="Grupo_61" data-name="Grupo 61" transform="translate(1.715 2.482)">
          <path id="Trazado_51" data-name="Trazado 51" d="M289.96,101.432a.229.229,0,0,1-.2-.114l-4.878-8.449a.227.227,0,1,1,.393-.226l4.878,8.447a.227.227,0,0,1-.083.31A.223.223,0,0,1,289.96,101.432Z" transform="translate(-284.856 -92.529)" fill="gray"/>
          <g id="Grupo_59" data-name="Grupo 59" transform="translate(1.912 0.288)">
            <path id="Trazado_52" data-name="Trazado 52" d="M286.876,96.7a.228.228,0,0,1-.226-.21L286.386,93a.228.228,0,0,1,.209-.244.241.241,0,0,1,.244.209l.265,3.484a.227.227,0,0,1-.21.242Z" transform="translate(-286.386 -92.759)" fill="gray"/>
          </g>
          <g id="Grupo_60" data-name="Grupo 60" transform="translate(1.829 5.574)">
            <path id="Trazado_53" data-name="Trazado 53" d="M288.791,98.927a.22.22,0,0,1-.125-.039L286.42,97.4a.227.227,0,0,1,.25-.378l2.246,1.484a.227.227,0,0,1-.125.416Z" transform="translate(-286.319 -96.988)" fill="gray"/>
          </g>
        </g>
      </g>
      <g id="Grupo_67" data-name="Grupo 67" transform="translate(32.365 23.239)">
        <g id="Grupo_63" data-name="Grupo 63" opacity="0.7" style="isolation: isolate">
          <path id="Trazado_54" data-name="Trazado 54" d="M303.668,104.981a5.731,5.731,0,0,1,.191.717,5.819,5.819,0,0,1-4.56,6.85,5.82,5.82,0,0,1,4.369-7.568Z" transform="translate(-298.992 -104.981)" fill="#53bfb6"/>
        </g>
        <path id="Trazado_55" data-name="Trazado 55" d="M303.668,104.981a5.731,5.731,0,0,1,.191.717,5.819,5.819,0,0,1-4.56,6.85,5.82,5.82,0,0,1,4.369-7.568Z" transform="translate(-298.992 -104.981)" fill="#53bfb6"/>
        <g id="Grupo_66" data-name="Grupo 66" transform="translate(1.094 1.37)">
          <path id="Trazado_56" data-name="Trazado 56" d="M299.992,110.989a.125.125,0,0,1-.109-.187l2.692-4.663a.126.126,0,1,1,.218.126l-2.693,4.661A.124.124,0,0,1,299.992,110.989Z" transform="translate(-299.867 -106.077)" fill="gray"/>
          <g id="Grupo_64" data-name="Grupo 64" transform="translate(1.491 0.158)">
            <path id="Trazado_57" data-name="Trazado 57" d="M301.185,108.377h-.01a.127.127,0,0,1-.115-.135l.146-1.923a.118.118,0,0,1,.135-.115.127.127,0,0,1,.115.135l-.146,1.921A.125.125,0,0,1,301.185,108.377Z" transform="translate(-301.06 -106.204)" fill="gray"/>
          </g>
          <g id="Grupo_65" data-name="Grupo 65" transform="translate(0.443 3.076)">
            <path id="Trazado_58" data-name="Trazado 58" d="M300.347,109.608a.127.127,0,0,1-.1-.056.125.125,0,0,1,.036-.174l1.239-.819a.126.126,0,1,1,.139.209l-1.24.819A.127.127,0,0,1,300.347,109.608Z" transform="translate(-300.222 -108.538)" fill="gray"/>
          </g>
        </g>
      </g>
      <g id="Grupo_72" data-name="Grupo 72" transform="translate(19.903 23.239)">
        <g id="Grupo_68" data-name="Grupo 68" opacity="0.7" style="isolation: isolate">
          <path id="Trazado_59" data-name="Trazado 59" d="M293.223,107.777a5.8,5.8,0,0,1,.475,4.771,5.819,5.819,0,0,1-4.561-6.85,5.736,5.736,0,0,1,.193-.717,5.8,5.8,0,0,1,3.893,2.8Z" transform="translate(-289.022 -104.981)" fill="#53bfb6"/>
        </g>
        <path id="Trazado_60" data-name="Trazado 60" d="M293.223,107.777a5.8,5.8,0,0,1,.475,4.771,5.819,5.819,0,0,1-4.561-6.85,5.736,5.736,0,0,1,.193-.717,5.8,5.8,0,0,1,3.893,2.8Z" transform="translate(-289.022 -104.981)" fill="#53bfb6"/>
        <g id="Grupo_71" data-name="Grupo 71" transform="translate(0.946 1.371)">
          <path id="Trazado_61" data-name="Trazado 61" d="M292.6,110.989a.124.124,0,0,1-.109-.062l-2.691-4.661a.126.126,0,0,1,.045-.173.128.128,0,0,1,.171.046l2.693,4.663a.125.125,0,0,1-.109.188Z" transform="translate(-289.779 -106.078)" fill="gray"/>
          <g id="Grupo_69" data-name="Grupo 69" transform="translate(1.056 0.157)">
            <path id="Trazado_62" data-name="Trazado 62" d="M290.894,108.377a.127.127,0,0,1-.125-.116l-.145-1.921a.126.126,0,0,1,.115-.135.12.12,0,0,1,.135.115l.146,1.923a.128.128,0,0,1-.116.135Z" transform="translate(-290.624 -106.204)" fill="gray"/>
          </g>
          <g id="Grupo_70" data-name="Grupo 70" transform="translate(1.009 3.076)">
            <path id="Trazado_63" data-name="Trazado 63" d="M291.951,109.608a.127.127,0,0,1-.069-.021l-1.24-.819a.126.126,0,0,1,.139-.209l1.24.819a.126.126,0,0,1-.07.23Z" transform="translate(-290.586 -108.538)" fill="gray"/>
          </g>
        </g>
      </g>
      <g id="Grupo_73" data-name="Grupo 73" transform="translate(28.625 30.433)">
        <path id="Trazado_64" data-name="Trazado 64" d="M296,110.736" transform="translate(-296 -110.736)"/>
      </g>
      <g id="Grupo_74" data-name="Grupo 74" transform="translate(28.625 30.433)">
        <path id="Trazado_65" data-name="Trazado 65" d="M296,110.736" transform="translate(-296 -110.736)"/>
      </g>
      <g id="Grupo_75" data-name="Grupo 75" transform="translate(23.521 30.433)">
        <path id="Trazado_66" data-name="Trazado 66" d="M297.021,138.1h4.04a1.064,1.064,0,0,0,1.056-1.194l-3.1-25.234a1.064,1.064,0,0,0-1.056-.934h-1.875a1.064,1.064,0,0,0-1.056.934l-3.1,25.234a1.064,1.064,0,0,0,1.056,1.194Z" transform="translate(-291.917 -110.736)" fill="gray"/>
      </g>
      <g id="Grupo_76" data-name="Grupo 76" transform="translate(28.994 32.704)">
        <path id="Trazado_67" data-name="Trazado 67" d="M297.309,119.061l.915.915a.341.341,0,0,0,.51-.031l5.011-6.416a.342.342,0,0,0-.028-.451l-.213-.212-.211-.211a.34.34,0,0,0-.451-.028l-6.416,5.011a.34.34,0,0,0-.031.509Z" transform="translate(-296.295 -112.553)" fill="gray"/>
      </g>
      <g id="Grupo_77" data-name="Grupo 77" transform="translate(21.124 39.541)">
        <path id="Trazado_68" data-name="Trazado 68" d="M296.508,124.531l.915-.915a.341.341,0,0,0-.031-.509l-6.417-5.011a.339.339,0,0,0-.45.027l-.212.211-.213.213a.342.342,0,0,0-.027.451l5.011,6.416a.341.341,0,0,0,.51.031Z" transform="translate(-289.999 -118.023)" fill="gray"/>
      </g>
    </g>
  </g>
</svg>
