<svg xmlns="http://www.w3.org/2000/svg" width="60" height="60" viewBox="0 0 60 60">
  <g id="Freemium" transform="translate(272)">
    <g id="Group_2154" data-name="Group 2154" transform="translate(-253.016 5.633)">
      <g id="Group_2" data-name="Group 2">
        <path id="Path_8" data-name="Path 8" d="M-245.8,4.506a32.544,32.544,0,0,1,2.929,2.929A32.457,32.457,0,0,1-245.8,53.241a32.38,32.38,0,0,1-11.015-24.368A32.38,32.38,0,0,1-245.8,4.506Z" transform="translate(256.813 -4.506)" fill="#fff" opacity="0.7" style="isolation: isolate"/>
        <path id="Path_9" data-name="Path 9" d="M-245.8,4.506a32.544,32.544,0,0,1,2.929,2.929A32.457,32.457,0,0,1-245.8,53.241a32.38,32.38,0,0,1-11.015-24.368A32.38,32.38,0,0,1-245.8,4.506Z" transform="translate(256.813 -4.506)" fill="#fff"/>
      </g>
      <g id="Group_3" data-name="Group 3" transform="translate(6.835 9.355)">
        <path id="Path_10" data-name="Path 10" d="M-247.62,42.016V11.99" transform="translate(252.276 -11.99)" fill="#fff" stroke="#fff" stroke-linecap="round" stroke-linejoin="round" stroke-width="1.117"/>
        <line id="Line_4" data-name="Line 4" x1="4.656" y1="9.691" transform="translate(0 3.707)" fill="none" stroke="#fff" stroke-linecap="round" stroke-linejoin="round" stroke-width="1.117"/>
        <line id="Line_5" data-name="Line 5" y1="7.411" x2="3.705" transform="translate(4.656 17.674)" fill="none" stroke="#fff" stroke-linecap="round" stroke-linejoin="round" stroke-width="1.117"/>
      </g>
    </g>
    <rect id="Rectangle_922" data-name="Rectangle 922" width="60" height="60" transform="translate(-272 0)" fill="none"/>
  </g>
</svg>
