<svg xmlns="http://www.w3.org/2000/svg" width="60" height="60" viewBox="0 0 60 60">
  <g id="Freelancer" transform="translate(-68 -85.508)">
    <g id="Group_2158" data-name="Group 2158" transform="translate(76.597 90.448)">
      <g id="Group_2" data-name="Group 2">
        <g id="Group_2156" data-name="Group 2156">
          <path id="Path_6307" data-name="Path 6307" d="M95.642,114.909c-4.305,2.74-8.727,9.306-10.493,13.869A29.185,29.185,0,0,1,80.413,89.46a29.623,29.623,0,0,1,3.15,1.984A29.127,29.127,0,0,1,95.642,114.909Z" transform="translate(-74.878 -89.46)" fill="#fff"/>
        </g>
        <g id="Path_9" data-name="Path 9" transform="translate(10.27 39.316)">
          <path id="Path_6308" data-name="Path 6308" d="M83.094,120.913" transform="translate(-83.094 -120.913)" fill="#fff"/>
        </g>
      </g>
      <g id="Group_3" data-name="Group 3" transform="translate(3.843 7.478)">
        <g id="Path_10" data-name="Path 10" transform="translate(3.343)">
          <path id="Path_6309" data-name="Path 6309" d="M86.537,119.969a.628.628,0,0,1-.611-.488L80.642,96.209a.628.628,0,1,1,1.224-.279L87.15,119.2a.629.629,0,0,1-.472.751A.676.676,0,0,1,86.537,119.969Z" transform="translate(-80.627 -95.443)" fill="#fff"/>
        </g>
        <g id="Line_4" data-name="Line 4" transform="translate(0 4.175)">
          <path id="Path_6310" data-name="Path 6310" d="M84.589,107.606a.623.623,0,0,1-.491-.236L78.088,99.8a.627.627,0,0,1,.982-.78l6.01,7.569a.626.626,0,0,1-.491,1.016Z" transform="translate(-77.952 -98.783)" fill="#fff"/>
        </g>
        <g id="Line_5" data-name="Line 5" transform="translate(8.334 14.753)">
          <path id="Path_6311" data-name="Path 6311" d="M85.249,115.734a.615.615,0,0,1-.15-.018.629.629,0,0,1-.461-.759l1.774-7.234a.627.627,0,1,1,1.219.3l-1.773,7.234A.628.628,0,0,1,85.249,115.734Z" transform="translate(-84.62 -107.245)" fill="#fff"/>
        </g>
      </g>
      <g id="Group_2157" data-name="Group 2157" transform="translate(9.174 21.358)">
        <g id="Group_2-2" data-name="Group 2">
          <g id="Path_8" data-name="Path 8" opacity="0.7" style="isolation: isolate">
            <path id="Path_6312" data-name="Path 6312" d="M115.848,106.895A29.166,29.166,0,0,1,82.217,134.96a29.176,29.176,0,0,1,33.631-28.065Z" transform="translate(-82.217 -106.547)" fill="#fff"/>
          </g>
          <g id="Path_9-2" data-name="Path 9">
            <path id="Path_6313" data-name="Path 6313" d="M115.848,106.895A29.166,29.166,0,0,1,82.217,134.96a29.176,29.176,0,0,1,33.631-28.065Z" transform="translate(-82.217 -106.547)" fill="#fff"/>
          </g>
        </g>
        <g id="Group_3-2" data-name="Group 3" transform="translate(6.102 4.358)">
          <g id="Path_10-2" data-name="Path 10" transform="translate(0 1.078)">
            <path id="Path_6314" data-name="Path 6314" d="M87.727,129.443a.629.629,0,0,1-.4-1.11l20.721-17.291a.628.628,0,0,1,.8.964L88.128,129.3A.621.621,0,0,1,87.727,129.443Z" transform="translate(-87.098 -110.895)" fill="#fff"/>
          </g>
          <g id="Line_4-2" data-name="Line 4" transform="translate(11.475)">
            <path id="Path_6315" data-name="Path 6315" d="M96.905,120.082a.627.627,0,0,1-.571-.887l4.006-8.794a.628.628,0,0,1,1.144.52l-4.007,8.794A.626.626,0,0,1,96.905,120.082Z" transform="translate(-96.278 -110.033)" fill="#fff"/>
          </g>
          <g id="Line_5-2" data-name="Line 5" transform="translate(3.409 13.815)">
            <path id="Path_6316" data-name="Path 6316" d="M90.452,124.049a.628.628,0,0,1-.143-1.239l7.247-1.71a.627.627,0,0,1,.289,1.221L90.6,124.033A.645.645,0,0,1,90.452,124.049Z" transform="translate(-89.826 -121.085)" fill="#fff"/>
          </g>
        </g>
      </g>
    </g>
    <g id="Group_2159" data-name="Group 2159" transform="translate(68 85.508)">
      <rect id="Rectangle_923" data-name="Rectangle 923" width="60" height="60" fill="none"/>
    </g>
  </g>
</svg>
