<svg xmlns="http://www.w3.org/2000/svg" width="60" height="60" viewBox="0 0 60 60">
  <g id="Group2" transform="translate(-68 -85.508)">
    <g id="Grupo_14" data-name="Grupo 14" transform="translate(76.597 90.448)">
      <path id="Trazado_4" data-name="Trazado 4" d="M95.642,114.909c-4.305,2.74-8.727,9.306-10.493,13.869A29.185,29.185,0,0,1,80.413,89.46a29.624,29.624,0,0,1,3.15,1.984A29.127,29.127,0,0,1,95.642,114.909Z" transform="translate(-74.878 -89.46)" fill="#53bfb6"/>
      <g id="Grupo_3" data-name="Grupo 3" transform="translate(10.27 39.316)">
        <path id="Trazado_5" data-name="Trazado 5" d="M83.094,120.913" transform="translate(-83.094 -120.913)" fill="#53bfb6"/>
      </g>
      <g id="Grupo_7" data-name="Grupo 7" transform="translate(3.843 7.478)">
        <g id="Grupo_4" data-name="Grupo 4" transform="translate(3.343)">
          <path id="Trazado_6" data-name="Trazado 6" d="M86.537,119.969a.628.628,0,0,1-.611-.488L80.642,96.209a.628.628,0,1,1,1.224-.279L87.15,119.2a.629.629,0,0,1-.472.751.677.677,0,0,1-.141.018Z" transform="translate(-80.627 -95.443)" fill="gray"/>
        </g>
        <g id="Grupo_5" data-name="Grupo 5" transform="translate(0 4.175)">
          <path id="Trazado_7" data-name="Trazado 7" d="M84.589,107.606a.623.623,0,0,1-.491-.236l-6.01-7.57a.627.627,0,0,1,.982-.78l6.01,7.569a.626.626,0,0,1-.491,1.016Z" transform="translate(-77.952 -98.783)" fill="gray"/>
        </g>
        <g id="Grupo_6" data-name="Grupo 6" transform="translate(8.334 14.753)">
          <path id="Trazado_8" data-name="Trazado 8" d="M85.249,115.734a.615.615,0,0,1-.15-.018.629.629,0,0,1-.461-.759l1.774-7.234a.628.628,0,1,1,1.219.3l-1.773,7.234A.628.628,0,0,1,85.249,115.734Z" transform="translate(-84.62 -107.245)" fill="gray"/>
        </g>
      </g>
      <g id="Grupo_13" data-name="Grupo 13" transform="translate(9.174 21.358)">
        <g id="Grupo_8" data-name="Grupo 8" opacity="0.7" style="isolation: isolate">
          <path id="Trazado_9" data-name="Trazado 9" d="M115.848,106.895A29.166,29.166,0,0,1,82.217,134.96,29.176,29.176,0,0,1,115.848,106.9Z" transform="translate(-82.217 -106.547)" fill="#53bfb6"/>
        </g>
        <path id="Trazado_10" data-name="Trazado 10" d="M115.848,106.895A29.166,29.166,0,0,1,82.217,134.96,29.176,29.176,0,0,1,115.848,106.9Z" transform="translate(-82.217 -106.547)" fill="#53bfb6"/>
        <g id="Grupo_12" data-name="Grupo 12" transform="translate(6.102 4.358)">
          <g id="Grupo_9" data-name="Grupo 9" transform="translate(0 1.078)">
            <path id="Trazado_11" data-name="Trazado 11" d="M87.727,129.443a.629.629,0,0,1-.4-1.11l20.721-17.291a.628.628,0,0,1,.8.964L88.128,129.3a.621.621,0,0,1-.4.143Z" transform="translate(-87.098 -110.895)" fill="gray"/>
          </g>
          <g id="Grupo_10" data-name="Grupo 10" transform="translate(11.475)">
            <path id="Trazado_12" data-name="Trazado 12" d="M96.9,120.082a.627.627,0,0,1-.571-.887l4.006-8.794a.628.628,0,0,1,1.144.52l-4.007,8.794a.626.626,0,0,1-.572.367Z" transform="translate(-96.278 -110.033)" fill="gray"/>
          </g>
          <g id="Grupo_11" data-name="Grupo 11" transform="translate(3.409 13.815)">
            <path id="Trazado_13" data-name="Trazado 13" d="M90.452,124.049a.628.628,0,0,1-.143-1.239l7.247-1.71a.627.627,0,0,1,.289,1.221L90.6,124.033A.645.645,0,0,1,90.452,124.049Z" transform="translate(-89.826 -121.085)" fill="gray"/>
          </g>
        </g>
      </g>
    </g>
    <g id="Grupo_15" data-name="Grupo 15" transform="translate(68 85.508)">
      <rect id="Rectángulo_2" data-name="Rectángulo 2" width="60" height="60" fill="none"/>
    </g>
  </g>
</svg>
