<svg xmlns="http://www.w3.org/2000/svg" width="48" height="48" viewBox="0 0 48 48"><defs><style>.a,.b{opacity:0.7;}.b{fill:#00a89c;}.c,.d{fill:none;}.c{stroke:gray;stroke-linecap:round;stroke-linejoin:round;}</style></defs><g transform="translate(-28.99 -333.613)"><g transform="translate(43.427 336.46)"><g class="a" transform="translate(0 0)"><path class="b" d="M107.067,366.39A28.107,28.107,0,0,1,97.5,387.544a28.175,28.175,0,0,1,0-42.307A28.111,28.111,0,0,1,107.067,366.39Z" transform="translate(-87.941 -345.237)"/><path class="b" d="M107.067,366.39A28.107,28.107,0,0,1,97.5,387.544a28.175,28.175,0,0,1,0-42.307A28.111,28.111,0,0,1,107.067,366.39Z" transform="translate(-87.941 -345.237)"/></g><g transform="translate(5.934 8.122)"><path class="c" d="M125.306,378.4v26.064" transform="translate(-122.089 -378.402)"/><line class="c" x1="4.042" y2="8.413" transform="translate(3.217 3.217)"/><line class="c" x2="3.217" y2="6.434" transform="translate(0 15.342)"/></g></g><rect class="d" width="48" height="48" transform="translate(28.99 333.613)"/></g></svg>