<svg id="Group_2413" data-name="Group 2413" xmlns="http://www.w3.org/2000/svg" width="32" height="32" viewBox="0 0 32 32">
  <circle id="Ellipse_548" data-name="Ellipse 548" cx="16" cy="16" r="16" fill="#ff5858"/>
  <g id="Fire" transform="translate(10 7.592)">
    <path id="Path_6175" data-name="Path 6175" d="M9.514,1.463a.621.621,0,0,1,.607-.2c2.985.686,4.5,3.958,4.14,6.885a5.849,5.849,0,0,1-.981,2.741l-.009.013a3.127,3.127,0,0,0,.318-.18A6.352,6.352,0,0,0,14.906,9.44l.175-.2a.621.621,0,0,1,1.024.125A6,6,0,1,1,7.459,7.051l.055-.056a.621.621,0,0,1,.094-.078,6.332,6.332,0,0,0,1.577-1.34,2.8,2.8,0,0,0,.528-1.782,4.741,4.741,0,0,0-.313-1.7.621.621,0,0,1,.112-.629Zm1.377,1.442a6.034,6.034,0,0,1,.065.887,4.029,4.029,0,0,1-.775,2.525A7.3,7.3,0,0,1,8.354,7.911l-.06.06a.621.621,0,0,1-.106.085,4.758,4.758,0,1,0,7.156,2.769,5.739,5.739,0,0,1-1.078.94,5.459,5.459,0,0,1-3.1.779.621.621,0,0,1-.3-1.164,4.06,4.06,0,0,0,1.4-1.2A4.634,4.634,0,0,0,13.029,8a5.255,5.255,0,0,0-2.138-5.1Z" transform="translate(-4.751 -1.25)" fill="#fff" fill-rule="evenodd"/>
  </g>
</svg>
