<svg xmlns="http://www.w3.org/2000/svg" viewBox="0 0 116.49 72"><defs><style>.a{fill:#ff5f00;}.b{fill:#eb001b;}.c{fill:#f79e1b;}</style></defs><rect class="a" x="42.5" y="7.7" width="31.5" height="56.61"/><path class="b" d="M44.5,36A35.94,35.94,0,0,1,58.25,7.7a36,36,0,1,0,0,56.6A35.92,35.92,0,0,1,44.5,36Z"/><path class="c" d="M116.49,36A36,36,0,0,1,58.25,64.3a36,36,0,0,0,0-56.6A36,36,0,0,1,116.49,36Z"/><path class="c" d="M113.06,58.31V57.15h.47v-.24h-1.19v.24h.46v1.16Zm2.31,0v-1.4H115l-.41,1-.42-1h-.37v1.4h.26V57.26l.39.9h.27l.39-.91v1.06Z"/></svg>