<svg xmlns="http://www.w3.org/2000/svg" width="20.001" height="20.002" viewBox="0 0 20.001 20.002">
  <g id="phone" transform="translate(-1.111 -1)">
    <path id="Path_6176" data-name="Path 6176" d="M20.111,15.476v2.71a1.809,1.809,0,0,1-1.973,1.806,17.933,17.933,0,0,1-7.81-2.773A17.631,17.631,0,0,1,4.9,11.8,17.852,17.852,0,0,1,2.119,3.969,1.808,1.808,0,0,1,3.92,2H6.635a1.809,1.809,0,0,1,1.81,1.554,11.579,11.579,0,0,0,.634,2.538A1.8,1.8,0,0,1,8.672,8L7.522,9.145a14.466,14.466,0,0,0,5.43,5.419L14.1,13.417a1.813,1.813,0,0,1,1.91-.406,11.64,11.64,0,0,0,2.543.632A1.808,1.808,0,0,1,20.111,15.476Z" fill="none" stroke="#000" stroke-linecap="round" stroke-linejoin="round" stroke-width="2"/>
  </g>
</svg>
