<svg xmlns="http://www.w3.org/2000/svg" width="60" height="60" viewBox="0 0 60 60">
  <g id="Group5" transform="translate(-204 -85.508)">
    <g id="Grupo_110" data-name="Grupo 110" transform="translate(204 85.508)">
      <rect id="Rectángulo_5" data-name="Rectángulo 5" width="60" height="60" fill="none"/>
    </g>
    <g id="Grupo_132" data-name="Grupo 132" transform="translate(221.717 88.196)">
      <g id="Grupo_116" data-name="Grupo 116" transform="translate(9.502)">
        <g id="Grupo_111" data-name="Grupo 111" opacity="0.7" style="isolation: isolate">
          <path id="Trazado_94" data-name="Trazado 94" d="M228.556,87.658a8.1,8.1,0,0,1,.739.74,8.193,8.193,0,0,1-.739,11.564,8.194,8.194,0,0,1,0-12.3Z" transform="translate(-225.775 -87.658)" fill="#53bfb6"/>
        </g>
        <path id="Trazado_95" data-name="Trazado 95" d="M228.556,87.658a8.1,8.1,0,0,1,.739.74,8.193,8.193,0,0,1-.739,11.564,8.194,8.194,0,0,1,0-12.3Z" transform="translate(-225.775 -87.658)" fill="#53bfb6"/>
        <g id="Grupo_115" data-name="Grupo 115" transform="translate(1.55 2.185)">
          <g id="Grupo_112" data-name="Grupo 112" transform="translate(1.175)">
            <path id="Trazado_96" data-name="Trazado 96" d="M228.131,97.34a.177.177,0,0,1-.176-.176v-7.58a.176.176,0,1,1,.353,0v7.58a.176.176,0,0,1-.177.176Z" transform="translate(-227.955 -89.406)" fill="gray"/>
          </g>
          <g id="Grupo_113" data-name="Grupo 113" transform="translate(0 0.936)">
            <path id="Trazado_97" data-name="Trazado 97" d="M228.366,92.955a.177.177,0,0,1-.159-.1l-1.175-2.448a.176.176,0,0,1,.318-.153l1.175,2.448a.175.175,0,0,1-.082.235.179.179,0,0,1-.077.018Z" transform="translate(-227.015 -90.155)" fill="gray"/>
          </g>
          <g id="Grupo_114" data-name="Grupo 114" transform="translate(1.175 4.463)">
            <path id="Trazado_98" data-name="Trazado 98" d="M228.131,95.2a.176.176,0,0,1-.158-.255l.935-1.871a.179.179,0,0,1,.236-.079.176.176,0,0,1,.079.236l-.935,1.871a.175.175,0,0,1-.157.1Z" transform="translate(-227.955 -92.977)" fill="gray"/>
          </g>
        </g>
      </g>
      <g id="Grupo_121" data-name="Grupo 121" transform="translate(17.549 5.966)">
        <g id="Grupo_117" data-name="Grupo 117" opacity="0.7" style="isolation: isolate">
          <path id="Trazado_99" data-name="Trazado 99" d="M238.8,92.431a8.191,8.191,0,0,1-6.151,10.656A8.2,8.2,0,0,1,238.8,92.431Z" transform="translate(-232.213 -92.431)" fill="#53bfb6"/>
        </g>
        <path id="Trazado_100" data-name="Trazado 100" d="M238.8,92.431a8.191,8.191,0,0,1-6.151,10.656A8.2,8.2,0,0,1,238.8,92.431Z" transform="translate(-232.213 -92.431)" fill="#53bfb6"/>
        <g id="Grupo_120" data-name="Grupo 120" transform="translate(1.54 1.931)">
          <path id="Trazado_101" data-name="Trazado 101" d="M233.622,100.892a.177.177,0,0,1-.154-.264l3.791-6.565a.176.176,0,0,1,.3.175l-3.79,6.565a.175.175,0,0,1-.147.089Z" transform="translate(-233.445 -93.975)" fill="gray"/>
          <g id="Grupo_118" data-name="Grupo 118" transform="translate(2.099 0.221)">
            <path id="Trazado_102" data-name="Trazado 102" d="M235.3,97.212h-.014a.177.177,0,0,1-.163-.19l.206-2.706a.169.169,0,0,1,.189-.162.177.177,0,0,1,.163.19l-.206,2.706a.175.175,0,0,1-.175.162Z" transform="translate(-235.125 -94.152)" fill="gray"/>
          </g>
          <g id="Grupo_119" data-name="Grupo 119" transform="translate(0.624 4.331)">
            <path id="Trazado_103" data-name="Trazado 103" d="M234.121,98.946a.177.177,0,0,1-.1-.324l1.745-1.153a.178.178,0,1,1,.2.294l-1.746,1.153a.174.174,0,0,1-.1.03Z" transform="translate(-233.945 -97.44)" fill="gray"/>
          </g>
        </g>
      </g>
      <g id="Grupo_126" data-name="Grupo 126" transform="translate(0 5.966)">
        <g id="Grupo_122" data-name="Grupo 122" opacity="0.7" style="isolation: isolate">
          <path id="Trazado_104" data-name="Trazado 104" d="M224.09,96.368a8.174,8.174,0,0,1,.667,6.719,8.191,8.191,0,0,1-6.151-10.656A8.174,8.174,0,0,1,224.09,96.368Z" transform="translate(-218.174 -92.431)" fill="#53bfb6"/>
        </g>
        <path id="Trazado_105" data-name="Trazado 105" d="M224.09,96.368a8.174,8.174,0,0,1,.667,6.719,8.191,8.191,0,0,1-6.151-10.656A8.174,8.174,0,0,1,224.09,96.368Z" transform="translate(-218.174 -92.431)" fill="#53bfb6"/>
        <g id="Grupo_125" data-name="Grupo 125" transform="translate(1.333 1.931)">
          <path id="Trazado_106" data-name="Trazado 106" d="M223.206,100.892a.174.174,0,0,1-.152-.089l-3.79-6.565a.175.175,0,0,1,.065-.24.177.177,0,0,1,.241.065l3.789,6.565a.176.176,0,0,1-.153.264Z" transform="translate(-219.24 -93.975)" fill="gray"/>
          <g id="Grupo_123" data-name="Grupo 123" transform="translate(1.486 0.221)">
            <path id="Trazado_107" data-name="Trazado 107" d="M220.81,97.212a.177.177,0,0,1-.176-.162l-.2-2.706a.177.177,0,0,1,.163-.19.17.17,0,0,1,.19.162l.2,2.706a.178.178,0,0,1-.163.19Z" transform="translate(-220.429 -94.152)" fill="gray"/>
          </g>
          <g id="Grupo_124" data-name="Grupo 124" transform="translate(1.421 4.331)">
            <path id="Trazado_108" data-name="Trazado 108" d="M222.3,98.946a.175.175,0,0,1-.1-.03l-1.746-1.153a.176.176,0,0,1-.05-.244.173.173,0,0,1,.244-.05l1.746,1.153a.177.177,0,0,1-.1.324Z" transform="translate(-220.377 -97.44)" fill="gray"/>
          </g>
        </g>
      </g>
      <g id="Grupo_127" data-name="Grupo 127" transform="translate(12.283 16.096)">
        <path id="Trazado_109" data-name="Trazado 109" d="M228,100.535" transform="translate(-228 -100.535)"/>
      </g>
      <g id="Grupo_128" data-name="Grupo 128" transform="translate(12.283 16.096)">
        <path id="Trazado_110" data-name="Trazado 110" d="M228,100.535" transform="translate(-228 -100.535)"/>
      </g>
      <g id="Grupo_129" data-name="Grupo 129" transform="translate(5.095 16.096)">
        <path id="Trazado_111" data-name="Trazado 111" d="M229.438,139.064h5.689a1.5,1.5,0,0,0,1.486-1.681l-4.369-35.533a1.5,1.5,0,0,0-1.488-1.315h-2.639a1.5,1.5,0,0,0-1.487,1.315l-4.369,35.533a1.5,1.5,0,0,0,1.487,1.681Z" transform="translate(-222.25 -100.535)" fill="gray"/>
      </g>
      <g id="Grupo_130" data-name="Grupo 130" transform="translate(12.801 19.294)">
        <path id="Trazado_112" data-name="Trazado 112" d="M229.844,112.257l1.287,1.289a.481.481,0,0,0,.718-.044l7.057-9.036a.479.479,0,0,0-.039-.634l-.3-.3-.3-.3a.478.478,0,0,0-.634-.04l-9.036,7.057a.481.481,0,0,0-.044.717Z" transform="translate(-228.415 -103.093)" fill="gray"/>
      </g>
      <g id="Grupo_131" data-name="Grupo 131" transform="translate(1.72 28.922)">
        <path id="Trazado_113" data-name="Trazado 113" d="M228.714,119.96,230,118.671a.481.481,0,0,0-.044-.717L220.92,110.9a.479.479,0,0,0-.634.039l-.3.3-.3.3a.481.481,0,0,0-.039.635l7.057,9.035a.48.48,0,0,0,.717.044Z" transform="translate(-219.55 -110.796)" fill="gray"/>
      </g>
    </g>
  </g>
</svg>
