<svg xmlns="http://www.w3.org/2000/svg" width="60" height="60" viewBox="0 0 60 60">
  <g id="ScaleUp" transform="translate(-204 -85.508)">
    <g id="Layer_1" data-name="Layer 1" transform="translate(204 85.508)">
      <g id="Group_2175" data-name="Group 2175">
        <rect id="Rectangle_925" data-name="Rectangle 925" width="60" height="60" fill="none"/>
      </g>
    </g>
    <g id="Layer_2" data-name="Layer 2" transform="translate(221.717 88.196)">
      <g id="Group_2184" data-name="Group 2184">
        <g id="Group_2176" data-name="Group 2176" transform="translate(9.502)">
          <g id="Group_2" data-name="Group 2">
            <g id="Path_8" data-name="Path 8" opacity="0.7" style="isolation: isolate">
              <path id="Path_6342" data-name="Path 6342" d="M228.556,87.658a8.1,8.1,0,0,1,.739.74,8.193,8.193,0,0,1-.739,11.564,8.194,8.194,0,0,1,0-12.3Z" transform="translate(-225.775 -87.658)" fill="#fff"/>
            </g>
            <g id="Path_9" data-name="Path 9">
              <path id="Path_6343" data-name="Path 6343" d="M228.556,87.658a8.1,8.1,0,0,1,.739.74,8.193,8.193,0,0,1-.739,11.564,8.194,8.194,0,0,1,0-12.3Z" transform="translate(-225.775 -87.658)" fill="#fff"/>
            </g>
          </g>
          <g id="Group_3" data-name="Group 3" transform="translate(1.55 2.185)">
            <g id="Path_10" data-name="Path 10" transform="translate(1.175)">
              <path id="Path_6344" data-name="Path 6344" d="M228.131,97.34a.177.177,0,0,1-.176-.176v-7.58a.176.176,0,1,1,.353,0v7.58A.176.176,0,0,1,228.131,97.34Z" transform="translate(-227.955 -89.406)" fill="#fff"/>
            </g>
            <g id="Line_4" data-name="Line 4" transform="translate(0 0.936)">
              <path id="Path_6345" data-name="Path 6345" d="M228.366,92.955a.177.177,0,0,1-.159-.1l-1.175-2.448a.176.176,0,1,1,.318-.153l1.175,2.448a.175.175,0,0,1-.082.235A.179.179,0,0,1,228.366,92.955Z" transform="translate(-227.015 -90.155)" fill="#fff"/>
            </g>
            <g id="Line_5" data-name="Line 5" transform="translate(1.175 4.463)">
              <path id="Path_6346" data-name="Path 6346" d="M228.131,95.2a.176.176,0,0,1-.158-.255l.935-1.871a.179.179,0,0,1,.236-.079.176.176,0,0,1,.079.236l-.935,1.871A.175.175,0,0,1,228.131,95.2Z" transform="translate(-227.955 -92.977)" fill="#fff"/>
            </g>
          </g>
        </g>
        <g id="Group_2177" data-name="Group 2177" transform="translate(17.549 5.966)">
          <g id="Group_2-2" data-name="Group 2">
            <g id="Path_8-2" data-name="Path 8" opacity="0.7" style="isolation: isolate">
              <path id="Path_6347" data-name="Path 6347" d="M238.8,92.431a8.191,8.191,0,0,1-6.151,10.656A8.2,8.2,0,0,1,238.8,92.431Z" transform="translate(-232.213 -92.431)" fill="#fff"/>
            </g>
            <g id="Path_9-2" data-name="Path 9">
              <path id="Path_6348" data-name="Path 6348" d="M238.8,92.431a8.191,8.191,0,0,1-6.151,10.656A8.2,8.2,0,0,1,238.8,92.431Z" transform="translate(-232.213 -92.431)" fill="#fff"/>
            </g>
          </g>
          <g id="Group_3-2" data-name="Group 3" transform="translate(1.54 1.931)">
            <g id="Path_10-2" data-name="Path 10">
              <path id="Path_6349" data-name="Path 6349" d="M233.622,100.892a.177.177,0,0,1-.154-.264l3.791-6.565a.176.176,0,0,1,.3.175l-3.79,6.565A.175.175,0,0,1,233.622,100.892Z" transform="translate(-233.445 -93.975)" fill="#fff"/>
            </g>
            <g id="Line_4-2" data-name="Line 4" transform="translate(2.099 0.221)">
              <path id="Path_6350" data-name="Path 6350" d="M235.3,97.212h-.014a.177.177,0,0,1-.163-.19l.206-2.706a.169.169,0,0,1,.189-.162.177.177,0,0,1,.163.19l-.206,2.706A.175.175,0,0,1,235.3,97.212Z" transform="translate(-235.125 -94.152)" fill="#fff"/>
            </g>
            <g id="Line_5-2" data-name="Line 5" transform="translate(0.624 4.331)">
              <path id="Path_6351" data-name="Path 6351" d="M234.121,98.946a.177.177,0,0,1-.1-.324l1.745-1.153a.176.176,0,1,1,.2.294l-1.746,1.153A.174.174,0,0,1,234.121,98.946Z" transform="translate(-233.945 -97.44)" fill="#fff"/>
            </g>
          </g>
        </g>
        <g id="Group_2178" data-name="Group 2178" transform="translate(0 5.966)">
          <g id="Group_2-3" data-name="Group 2">
            <g id="Path_8-3" data-name="Path 8" opacity="0.7" style="isolation: isolate">
              <path id="Path_6352" data-name="Path 6352" d="M224.09,96.368a8.174,8.174,0,0,1,.667,6.719,8.191,8.191,0,0,1-6.151-10.656A8.174,8.174,0,0,1,224.09,96.368Z" transform="translate(-218.174 -92.431)" fill="#fff"/>
            </g>
            <g id="Path_9-3" data-name="Path 9">
              <path id="Path_6353" data-name="Path 6353" d="M224.09,96.368a8.174,8.174,0,0,1,.667,6.719,8.191,8.191,0,0,1-6.151-10.656A8.174,8.174,0,0,1,224.09,96.368Z" transform="translate(-218.174 -92.431)" fill="#fff"/>
            </g>
          </g>
          <g id="Group_3-3" data-name="Group 3" transform="translate(1.333 1.931)">
            <g id="Path_10-3" data-name="Path 10">
              <path id="Path_6354" data-name="Path 6354" d="M223.206,100.892a.174.174,0,0,1-.152-.089l-3.79-6.565a.175.175,0,0,1,.065-.24.177.177,0,0,1,.241.065l3.789,6.565a.176.176,0,0,1-.153.264Z" transform="translate(-219.24 -93.975)" fill="#fff"/>
            </g>
            <g id="Line_4-3" data-name="Line 4" transform="translate(1.486 0.221)">
              <path id="Path_6355" data-name="Path 6355" d="M220.81,97.212a.177.177,0,0,1-.176-.162l-.2-2.706a.177.177,0,0,1,.163-.19.17.17,0,0,1,.19.162l.205,2.706a.178.178,0,0,1-.163.19Z" transform="translate(-220.429 -94.152)" fill="#fff"/>
            </g>
            <g id="Line_5-3" data-name="Line 5" transform="translate(1.421 4.331)">
              <path id="Path_6356" data-name="Path 6356" d="M222.3,98.946a.175.175,0,0,1-.1-.03l-1.746-1.153a.176.176,0,0,1-.05-.244.173.173,0,0,1,.244-.05l1.746,1.153a.177.177,0,0,1-.1.324Z" transform="translate(-220.377 -97.44)" fill="#fff"/>
            </g>
          </g>
        </g>
        <g id="Group_2179" data-name="Group 2179" transform="translate(12.283 16.096)">
          <path id="Path_6357" data-name="Path 6357" d="M228,100.535" transform="translate(-228 -100.535)" fill="#fff"/>
        </g>
        <g id="Group_2180" data-name="Group 2180" transform="translate(12.283 16.096)">
          <path id="Path_6358" data-name="Path 6358" d="M228,100.535" transform="translate(-228 -100.535)" fill="#fff"/>
        </g>
        <g id="Group_2181" data-name="Group 2181" transform="translate(5.095 16.096)">
          <path id="Path_6359" data-name="Path 6359" d="M229.438,139.064h5.689a1.5,1.5,0,0,0,1.486-1.681l-4.369-35.533a1.5,1.5,0,0,0-1.488-1.315h-2.639a1.5,1.5,0,0,0-1.487,1.315l-4.369,35.533a1.5,1.5,0,0,0,1.487,1.681Z" transform="translate(-222.25 -100.535)" fill="#fff"/>
        </g>
        <g id="Group_2182" data-name="Group 2182" transform="translate(12.801 19.294)">
          <path id="Path_6360" data-name="Path 6360" d="M229.844,112.257l1.287,1.289a.481.481,0,0,0,.718-.044l7.057-9.036a.479.479,0,0,0-.039-.634l-.3-.3-.3-.3a.478.478,0,0,0-.634-.04l-9.036,7.057a.481.481,0,0,0-.044.717Z" transform="translate(-228.415 -103.093)" fill="#fff"/>
        </g>
        <g id="Group_2183" data-name="Group 2183" transform="translate(1.72 28.922)">
          <path id="Path_6361" data-name="Path 6361" d="M228.714,119.96,230,118.671a.481.481,0,0,0-.044-.717l-9.036-7.056a.479.479,0,0,0-.634.039l-.3.3-.3.3a.481.481,0,0,0-.039.635l7.057,9.035a.48.48,0,0,0,.717.044Z" transform="translate(-219.55 -110.796)" fill="#fff"/>
        </g>
      </g>
    </g>
  </g>
</svg>
