<svg xmlns="http://www.w3.org/2000/svg" xmlns:xlink="http://www.w3.org/1999/xlink" width="24" height="24" viewBox="0 0 24 24">
  <defs>
    <style>
      .cls-1 {
        clip-path: url(#clip-settings);
      }

      .cls-2 {
        fill: none;
        stroke: #000;
        stroke-linecap: round;
        stroke-linejoin: round;
        stroke-width: 1.5px;
      }
    </style>
    <clipPath id="clip-settings">
      <rect width="24" height="24"/>
    </clipPath>
  </defs>
  <g id="settings" class="cls-1">
    <g id="Group_2150" data-name="Group 2150">
      <g id="settings-2" data-name="settings" transform="translate(2 2)">
        <circle id="Ellipse_621" data-name="Ellipse 621" class="cls-2" cx="2.5" cy="2.5" r="2.5" transform="translate(7.5 7.5)"/>
        <path id="Path_6418" data-name="Path 6418" class="cls-2" d="M16.167,12.5a1.375,1.375,0,0,0,.275,1.517l.05.05a1.668,1.668,0,1,1-2.358,2.358l-.05-.05a1.386,1.386,0,0,0-2.35.983V17.5a1.667,1.667,0,0,1-3.333,0v-.075a1.375,1.375,0,0,0-.9-1.258,1.375,1.375,0,0,0-1.517.275l-.05.05a1.668,1.668,0,1,1-2.358-2.358l.05-.05a1.386,1.386,0,0,0-.983-2.35H2.5A1.667,1.667,0,1,1,2.5,8.4h.075a1.375,1.375,0,0,0,1.258-.9,1.375,1.375,0,0,0-.275-1.517l-.05-.05A1.668,1.668,0,1,1,5.867,3.575l.05.05A1.375,1.375,0,0,0,7.433,3.9H7.5a1.375,1.375,0,0,0,.833-1.258V2.5a1.667,1.667,0,1,1,3.333,0v.075a1.386,1.386,0,0,0,2.35.983l.05-.05a1.668,1.668,0,1,1,2.358,2.358l-.05.05A1.375,1.375,0,0,0,16.1,7.433V7.5a1.375,1.375,0,0,0,1.258.833H17.5a1.667,1.667,0,0,1,0,3.333h-.075A1.375,1.375,0,0,0,16.167,12.5Z"/>
      </g>
    </g>
  </g>
</svg>
