<svg xmlns="http://www.w3.org/2000/svg" width="60" height="60" viewBox="0 0 60 60">
  <g id="Startup" transform="translate(-136 -85.508)">
    <g id="Group_2172" data-name="Group 2172" transform="translate(139.353 89.871)">
      <g id="Group_2" data-name="Group 2" transform="translate(30.393 14.204)">
        <g id="Group_2161" data-name="Group 2161">
          <path id="Path_6317" data-name="Path 6317" d="M174.106,113.977c-2.3,1.465-4.67,4.979-5.615,7.42a15.618,15.618,0,0,1-2.534-21.036,15.6,15.6,0,0,1,8.149,13.616Z" transform="translate(-162.996 -100.361)" fill="#53bfb6"/>
        </g>
        <g id="Path_9" data-name="Path 9" transform="translate(5.495 21.036)">
          <path id="Path_6318" data-name="Path 6318" d="M167.392,117.19" transform="translate(-167.392 -117.19)" fill="#53bfb6"/>
        </g>
      </g>
      <g id="Group_3" data-name="Group 3" transform="translate(32.449 18.204)">
        <g id="Path_10" data-name="Path 10" transform="translate(1.789)">
          <path id="Path_6319" data-name="Path 6319" d="M169.234,116.685a.336.336,0,0,1-.328-.261l-2.826-12.451a.335.335,0,1,1,.654-.149l2.827,12.451a.335.335,0,0,1-.253.4A.308.308,0,0,1,169.234,116.685Z" transform="translate(-166.072 -103.561)" fill="gray"/>
        </g>
        <g id="Line_4" data-name="Line 4" transform="translate(0 2.234)">
          <path id="Path_6320" data-name="Path 6320" d="M168.192,110.07a.334.334,0,0,1-.262-.128l-3.216-4.05a.336.336,0,0,1,.526-.417l3.216,4.05a.337.337,0,0,1-.055.473A.334.334,0,0,1,168.192,110.07Z" transform="translate(-164.641 -105.349)" fill="gray"/>
        </g>
        <g id="Line_5" data-name="Line 5" transform="translate(4.46 7.895)">
          <path id="Path_6321" data-name="Path 6321" d="M168.545,114.418a.348.348,0,0,1-.08-.009.336.336,0,0,1-.246-.406l.949-3.87a.335.335,0,1,1,.651.16l-.949,3.87A.334.334,0,0,1,168.545,114.418Z" transform="translate(-168.209 -109.877)" fill="gray"/>
        </g>
      </g>
      <g id="Group_2162" data-name="Group 2162" transform="translate(35.301 25.631)">
        <g id="Group_2-2" data-name="Group 2">
          <g id="Path_8" data-name="Path 8" opacity="0.7" style="isolation: isolate">
            <path id="Path_6322" data-name="Path 6322" d="M184.917,109.689a15.312,15.312,0,0,1-.179,1.984,15.608,15.608,0,0,1-17.815,13.033,15.611,15.611,0,0,1,17.994-15.016Z" transform="translate(-166.923 -109.503)" fill="#53bfb6"/>
          </g>
          <g id="Path_9-2" data-name="Path 9">
            <path id="Path_6323" data-name="Path 6323" d="M184.917,109.689a15.312,15.312,0,0,1-.179,1.984,15.608,15.608,0,0,1-17.815,13.033,15.611,15.611,0,0,1,17.994-15.016Z" transform="translate(-166.923 -109.503)" fill="#53bfb6"/>
          </g>
        </g>
        <g id="Group_3-2" data-name="Group 3" transform="translate(3.264 2.332)">
          <g id="Path_10-2" data-name="Path 10" transform="translate(0 0.576)">
            <path id="Path_6324" data-name="Path 6324" d="M169.87,121.753a.335.335,0,0,1-.215-.592l11.088-9.253a.335.335,0,1,1,.429.515l-11.086,9.253A.332.332,0,0,1,169.87,121.753Z" transform="translate(-169.535 -111.83)" fill="gray"/>
          </g>
          <g id="Line_4-2" data-name="Line 4" transform="translate(6.139)">
            <path id="Path_6325" data-name="Path 6325" d="M174.782,116.745a.336.336,0,0,1-.306-.475l2.144-4.705a.336.336,0,1,1,.611.277l-2.142,4.705A.338.338,0,0,1,174.782,116.745Z" transform="translate(-174.446 -111.369)" fill="gray"/>
          </g>
          <g id="Line_5-2" data-name="Line 5" transform="translate(1.825 7.389)">
            <path id="Path_6326" data-name="Path 6326" d="M171.33,118.867a.335.335,0,0,1-.077-.661l3.879-.916a.336.336,0,1,1,.154.654l-3.879.915A.317.317,0,0,1,171.33,118.867Z" transform="translate(-170.994 -117.28)" fill="gray"/>
          </g>
        </g>
      </g>
      <g id="Group_2163" data-name="Group 2163" transform="translate(34.67 34.95)">
        <path id="Path_6327" data-name="Path 6327" d="M166.418,116.958" transform="translate(-166.418 -116.958)" fill="none" stroke="gray" stroke-linecap="round" stroke-linejoin="round" stroke-width="2.276"/>
      </g>
      <g id="Group_2-3" data-name="Group 2" transform="translate(11.322)">
        <g id="Group_2164" data-name="Group 2164">
          <path id="Path_6328" data-name="Path 6328" d="M147.74,102.072c2.211,1.408,4.484,4.78,5.391,7.124A14.992,14.992,0,0,0,155.564,89a15.3,15.3,0,0,0-1.619,1.019A14.964,14.964,0,0,0,147.74,102.072Z" transform="translate(-147.74 -88.998)" fill="#53bfb6"/>
        </g>
        <g id="Path_9-3" data-name="Path 9" transform="translate(5.391 20.197)">
          <path id="Path_6329" data-name="Path 6329" d="M152.053,105.156" transform="translate(-152.053 -105.156)" fill="#53bfb6"/>
        </g>
      </g>
      <g id="Group_3-3" data-name="Group 3" transform="translate(14.178 3.841)">
        <g id="Path_10-3" data-name="Path 10" transform="translate(0.761)">
          <path id="Path_6330" data-name="Path 6330" d="M150.955,104.671a.354.354,0,0,1-.071-.008.322.322,0,0,1-.242-.386l2.714-11.955a.322.322,0,0,1,.629.142L151.27,104.42A.324.324,0,0,1,150.955,104.671Z" transform="translate(-150.633 -92.071)" fill="gray"/>
        </g>
        <g id="Line_4-3" data-name="Line 4" transform="translate(2.105 2.145)">
          <path id="Path_6331" data-name="Path 6331" d="M152.032,98.319a.322.322,0,0,1-.253-.522l3.087-3.887a.322.322,0,0,1,.505.4L152.284,98.2A.321.321,0,0,1,152.032,98.319Z" transform="translate(-151.709 -93.787)" fill="gray"/>
        </g>
        <g id="Line_5-3" data-name="Line 5" transform="translate(0 7.579)">
          <path id="Path_6332" data-name="Path 6332" d="M151.258,102.5a.323.323,0,0,1-.314-.245l-.91-3.716a.322.322,0,1,1,.626-.154l.91,3.716a.321.321,0,0,1-.236.39A.317.317,0,0,1,151.258,102.5Z" transform="translate(-150.025 -98.135)" fill="gray"/>
        </g>
      </g>
      <g id="Group_2165" data-name="Group 2165" transform="translate(0 10.971)">
        <g id="Group_2-4" data-name="Group 2">
          <g id="Path_8-2" data-name="Path 8" opacity="0.7" style="isolation: isolate">
            <path id="Path_6333" data-name="Path 6333" d="M150.579,101.259a14.953,14.953,0,0,1,5.38,11.114,14.982,14.982,0,0,1-17.277-14.419A14.955,14.955,0,0,1,150.579,101.259Z" transform="translate(-138.682 -97.775)" fill="#53bfb6"/>
          </g>
          <g id="Path_9-4" data-name="Path 9">
            <path id="Path_6334" data-name="Path 6334" d="M150.579,101.259a14.953,14.953,0,0,1,5.38,11.114,14.982,14.982,0,0,1-17.277-14.419A14.955,14.955,0,0,1,150.579,101.259Z" transform="translate(-138.682 -97.775)" fill="#53bfb6"/>
          </g>
        </g>
        <g id="Group_3-4" data-name="Group 3" transform="translate(2.853 2.24)">
          <g id="Path_10-4" data-name="Path 10" transform="translate(0 0.553)">
            <path id="Path_6335" data-name="Path 6335" d="M151.931,109.538a.32.32,0,0,1-.206-.075L141.08,100.58a.322.322,0,1,1,.412-.5l10.645,8.883a.323.323,0,0,1,.041.454A.318.318,0,0,1,151.931,109.538Z" transform="translate(-140.964 -100.009)" fill="gray"/>
          </g>
          <g id="Line_4-4" data-name="Line 4" transform="translate(2.691)">
            <path id="Path_6336" data-name="Path 6336" d="M145.5,104.728a.324.324,0,0,1-.294-.187l-2.059-4.519a.323.323,0,0,1,.587-.267l2.059,4.519a.324.324,0,0,1-.16.427A.337.337,0,0,1,145.5,104.728Z" transform="translate(-143.117 -99.567)" fill="gray"/>
          </g>
          <g id="Line_5-4" data-name="Line 5" transform="translate(5.169 7.095)">
            <path id="Path_6337" data-name="Path 6337" d="M149.146,106.768a.308.308,0,0,1-.075-.009l-3.723-.879a.322.322,0,0,1,.148-.628l3.724.879a.322.322,0,0,1-.074.636Z" transform="translate(-145.1 -105.243)" fill="gray"/>
          </g>
        </g>
      </g>
      <g id="Group_2166" data-name="Group 2166" transform="translate(18.544 20.961)">
        <path id="Path_6338" data-name="Path 6338" d="M153.517,105.767" transform="translate(-153.517 -105.767)" fill="none" stroke="gray" stroke-linecap="round" stroke-linejoin="round" stroke-width="1.792"/>
      </g>
      <g id="Group_2168" data-name="Group 2168" transform="translate(24.131 48.035)">
        <g id="Group_2167" data-name="Group 2167">
          <path id="Path_6339" data-name="Path 6339" d="M158.038,129.529v.1l-.051-2.207C158.021,128.128,158.038,128.831,158.038,129.529Z" transform="translate(-157.987 -127.426)" fill="gray"/>
        </g>
      </g>
      <g id="Group_2170" data-name="Group 2170" transform="translate(17.269 19.687)">
        <g id="Group_2169" data-name="Group 2169">
          <path id="Path_6340" data-name="Path 6340" d="M169.834,121.246l-.335.261c-6.166,4.814-7.594,9.181-7.861,11.566v0c.031.665.045,1.331.048,1.994v.555a.7.7,0,0,1-.094.353l0,0a.709.709,0,0,1-.615.355h-.853a.7.7,0,0,1-.359-.1l0,0a.7.7,0,0,1-.35-.612V135.2c0-.7-.017-1.4-.051-2.1-.606-13.043-6.561-26.469-6.626-26.607l-.174-.39a.713.713,0,0,1,.359-.941l.776-.348a.714.714,0,0,1,.941.359l.174.39a91.105,91.105,0,0,1,6.308,22.009,25.549,25.549,0,0,1,6.982-7.853l.335-.264a.711.711,0,0,1,1,.125l.526.671A.711.711,0,0,1,169.834,121.246Z" transform="translate(-152.497 -104.748)" fill="gray"/>
        </g>
      </g>
      <g id="Group_2171" data-name="Group 2171" transform="translate(34.67 34.95)">
        <path id="Path_6341" data-name="Path 6341" d="M166.418,116.958" transform="translate(-166.418 -116.958)" fill="none" stroke="gray" stroke-linecap="round" stroke-linejoin="round" stroke-width="0.967"/>
      </g>
    </g>
    <g id="Group_2173" data-name="Group 2173" transform="translate(136 85.508)">
      <rect id="Rectangle_924" data-name="Rectangle 924" width="60" height="60" fill="none"/>
    </g>
  </g>
</svg>
