<svg xmlns="http://www.w3.org/2000/svg" width="443.462" height="321.98" viewBox="0 0 443.462 321.98"><defs><style>.a,.e{fill:#81c5ed;}.a,.g{opacity:0.1;}.b{fill:#5cc8bf;}.c{fill:#fff;}.d{fill:#3f3d56;}.f{fill:#1791e4;}.h{fill:#ececf3;}</style></defs><g transform="translate(0 0)"><path class="a" d="M481,273.39c.245-2.816.374-5.678.374-8.57,0-45.274-30.718-81.978-68.608-81.978a59.789,59.789,0,0,0-33.28,10.3c-26.82-20.8-61.835-33.368-100.141-33.368-62.33,0-115.945,33.31-139.732,81.08-1.319-.092-2.65-.141-3.994-.141-37.911,0-68.624,36.7-68.624,81.974A93.375,93.375,0,0,0,78.29,367.74h0c0,40.731,32.636,73.762,72.893,73.762h50.753l.225-.387c2.983-4.842,10.126-6.053,15.1-3.3a16.031,16.031,0,0,0,4.006,2c5.878,1.248,9.826-8.208,15.775-7.288,2.987.462,5.317,3.549,8.32,3.232,1.993-.212,3.5-1.88,5.375-2.588,3-1.14,6.04.441,8.141,3.008,1.219-3.507,1.211-7.663,3.182-10.879,2.983-4.842,10.126-6.053,15.1-3.3a16.031,16.031,0,0,0,4.006,2c5.878,1.248,9.826-8.208,15.775-7.288,2.987.462,5.317,3.549,8.32,3.232,1.993-.212,3.5-1.88,5.375-2.588,4.668-1.776,9.447,3.045,10.6,7.9a33.7,33.7,0,0,1,.7,6.506c4.027-1.951,7.43-7.438,12.027-6.727,2.987.462,5.317,3.549,8.32,3.232,1.993-.212,3.5-1.88,5.375-2.588,4.668-1.776,9.447,3.045,10.6,7.9a41.18,41.18,0,0,1,.757,7.9h84.1c31.616,0,57.234-25.925,57.234-57.908h0A93.82,93.82,0,0,0,510.462,340.7C510.462,312.827,498.814,288.2,481,273.39Z" transform="translate(-67 -119.522)"/><path class="b" d="M36.5,0A36.5,36.5,0,1,1,0,36.5,36.5,36.5,0,0,1,36.5,0Z" transform="translate(222.731 38)"/><path class="c" d="M594.99,166l11.594-11.594L618.295,166h-7.958v8.865h-7.388v-8.807Z" transform="translate(-347.471 -90.175)"/><path class="c" d="M729.488,594.312V584.2l4.659,4.659,1.165-1.206L728.656,581,722,587.656l1.165,1.165,4.659-4.618v10.109Z" transform="translate(-449.516 -365.518)"/><path class="c" d="M170.488,627.312V617.2l4.659,4.659,1.165-1.206L169.656,614,163,620.656l1.165,1.165,4.659-4.618v10.109Z" transform="translate(-123.063 -384.789)"/><path class="c" d="M731.116,370V362.42l3.495,3.494.874-.9-4.992-4.992-4.992,4.992.874.874,3.494-3.465V370Z" transform="translate(-451.56 -236.466)"/><path class="c" d="M512.116,238V230.42l3.494,3.494.874-.9-4.992-4.992-4.992,4.992.874.874,3.494-3.465V238Z" transform="translate(-323.665 -159.379)"/><path class="c" d="M430.116,418V410.42l3.494,3.494.874-.9-4.992-4.992-4.992,4.992.874.874,3.494-3.465V418Z" transform="translate(-275.778 -264.498)"/><path class="c" d="M944.116,502V494.42l3.495,3.494.874-.9-4.992-4.992-4.992,4.992.874.874,3.494-3.465V502Z" transform="translate(-575.951 -313.554)"/><path class="c" d="M412.116,663V655.42l3.494,3.494.874-.9-4.992-4.992-4.992,4.992.874.874,3.494-3.465V663Z" transform="translate(-265.266 -407.577)"/><circle class="c" cx="2.5" cy="2.5" r="2.5" transform="translate(325.731 119)"/><circle class="c" cx="2.5" cy="2.5" r="2.5" transform="translate(90.731 113)"/><circle class="c" cx="2.5" cy="2.5" r="2.5" transform="translate(164.731 176)"/><circle class="c" cx="1" cy="1" r="1" transform="translate(383.731 220)"/><circle class="c" cx="1.5" cy="1.5" r="1.5" transform="translate(289.731 254)"/><circle class="c" cx="1.5" cy="1.5" r="1.5" transform="translate(129.731 283)"/><ellipse class="c" cx="1" cy="1.5" rx="1" ry="1.5" transform="translate(38.731 182)"/><ellipse class="c" cx="1.5" cy="1" rx="1.5" ry="1" transform="translate(50.731 156)"/><circle class="c" cx="1.5" cy="1.5" r="1.5" transform="translate(318.731 295)"/><circle class="c" cx="1.5" cy="1.5" r="1.5" transform="translate(87.731 252)"/><ellipse class="c" cx="1.5" cy="1" rx="1.5" ry="1" transform="translate(116.731 138)"/><path class="c" d="M367.228,218.448H360.78V212h-.832v6.448H353.5v.832h6.448v6.448h.832V219.28h6.448Z" transform="translate(-206.442 -123.807)"/><path class="c" d="M752.32,508.406h-3.906V504.5h-.508v3.906H744v.508h3.906v3.906h.508v-3.906h3.906Z" transform="translate(-434.492 -294.625)"/><path class="c" d="M695.32,683.406h-3.906V679.5h-.508v3.906H687v.508h3.906v3.906h.508v-3.906h3.906Z" transform="translate(-401.204 -396.824)"/><path class="c" d="M228.32,661.406h-3.906V657.5h-.508v3.906H220v.508h3.906v3.906h.508v-3.906h3.906Z" transform="translate(-128.479 -383.976)"/><path class="c" d="M162.32,485.406h-3.906V481.5h-.508v3.906H154v.508h3.906v3.906h.508v-3.906h3.906Z" transform="translate(-89.935 -281.193)"/><path class="d" d="M448.081,666.369l.029-2.342-1.406-.017-.029,2.342-2.425,7.006,6.09.071Z" transform="translate(-259.439 -387.778)"/><path class="d" d="M462.631,666.6l.029-2.4-1.444-.021-.029,2.4-2.488,7.184,6.248.071Z" transform="translate(-267.878 -387.878)"/><path class="d" d="M477.371,666.719l.029-2.342-1.406-.017-.029,2.342-2.425,7.005,6.094.071Z" transform="translate(-276.545 -387.983)"/><path class="d" d="M581.651,668.021l.029-2.4-1.444-.017-.029,2.4-2.488,7.18,6.248.075Z" transform="translate(-337.385 -388.707)"/><path class="d" d="M596.671,668.2l.029-2.4-1.444-.017-.029,2.4-2.488,7.18,6.248.075Z" transform="translate(-346.157 -388.812)"/><path class="d" d="M611.691,668.381l.029-2.4-1.444-.017-.029,2.4-2.488,7.18,6.248.075Z" transform="translate(-354.928 -388.917)"/><path class="d" d="M513.471,667.211l.029-2.4-1.443-.017-.029,2.4-2.488,7.18,6.248.075Z" transform="translate(-297.568 -388.234)"/><path class="d" d="M528.491,667.391l.029-2.4-1.439-.017-.029,2.4-2.492,7.18,6.248.075Z" transform="translate(-306.34 -388.339)"/><path class="d" d="M543.511,667.571l.029-2.4-1.439-.017-.029,2.4-2.492,7.18,6.253.075Z" transform="translate(-315.112 -388.444)"/><path class="e" d="M530.133,297.287c-.087-8.279-9.839-22.955-15.1-23.018s-14.885,14.381-15.168,22.656h-.25L497.63,463.249l30.526.362,1.984-166.319Z" transform="translate(-318.485 -186.389)"/><path class="e" d="M664.178,298.887c-.087-8.279-9.839-22.955-15.1-23.018s-14.885,14.381-15.163,22.656h-.25L631.68,464.849l30.527.362,1.984-166.319Z" transform="translate(-396.77 -187.323)"/><path class="f" d="M596.93,96.683c-.046-12.135-9.718-33.6-14.976-33.663s-14.976,21.171-15.3,33.28h-.245L563.5,340.18l30.522.366,2.912-243.883Z" transform="translate(-356.953 -63.02)"/><path class="c" d="M509.13,379.148l11.6-11.6,11.706,11.6h-7.954v8.865h-7.392V379.2Z" transform="translate(-297.329 -214.647)"/><g class="g" transform="translate(179.153 0.424)"><path d="M641.87,302.252c3.157-7.367,9.323-15.051,13.158-15.005,4.992.058,13.986,13.225,15.005,21.632l.108-9.031h0c-.087-8.279-9.839-22.955-15.1-23.018-3.786-.046-9.834,7.438-13.029,14.718Z" transform="translate(-581.874 -188.308)"/><path d="M499.63,184.964h.25c.279-8.274,9.905-22.718,15.163-22.656,3.436.042,8.782,6.311,12.106,12.963l.807-67.543h.245c.325-12.131,10.038-33.364,15.3-33.28,4.967.058,13.878,19.224,14.885,31.575l.1-8.32h0c-.046-12.135-9.718-33.6-14.976-33.663s-14.976,21.171-15.3,33.3h-.245l-.807,67.543c-3.328-6.656-8.67-12.921-12.106-12.963-5.258-.062-14.885,14.381-15.163,22.656h-.25L497.65,340.9h.125Z" transform="translate(-497.65 -64.04)"/></g><rect class="h" width="5.77" height="12.501" rx="2.885" transform="translate(222.113 10.527) rotate(0.68)"/></g></svg>