<svg xmlns="http://www.w3.org/2000/svg" viewBox="0 0 114.19 72"><defs><style>.a{fill:#1a1f71;}.b{fill:#fff;}</style></defs><path class="a" d="M4.24,0H110a4.23,4.23,0,0,1,4.23,4.23V67.77A4.23,4.23,0,0,1,110,72H4.24A4.24,4.24,0,0,1,0,67.77V4.24A4.24,4.24,0,0,1,4.24,0Z"/><path class="b" d="M43.4,20.85,30.7,51.17H22.4L16.15,27a3.33,3.33,0,0,0-1.86-2.66,32.79,32.79,0,0,0-7.74-2.58l.19-.88H20.08a3.66,3.66,0,0,1,3.62,3.09L27,41.49l8.16-20.64ZM75.88,41.26c0-8-11.06-8.43-11-12,0-1.09,1-2.24,3.32-2.54A14.72,14.72,0,0,1,76,28.07l1.38-6.43A21,21,0,0,0,70,20.3c-7.76,0-13.21,4.12-13.26,10-.05,4.36,3.89,6.8,6.87,8.25s4.08,2.44,4.06,3.77c0,2-2.43,2.92-4.69,3a16.48,16.48,0,0,1-8.06-1.91L53.5,50a24.08,24.08,0,0,0,8.73,1.62c8.24,0,13.63-4.08,13.65-10.39m20.47,9.91h7.26L97.28,20.85h-6.7a3.57,3.57,0,0,0-3.34,2.22L75.48,51.17h8.23l1.63-4.53H95.41ZM87.6,40.42,91.73,29l2.38,11.38Zm-33-19.57L48.12,51.17H40.27l6.5-30.32Z"/></svg>