<svg xmlns="http://www.w3.org/2000/svg" width="60" height="60" viewBox="0 0 60 60">
  <g id="Group1" transform="translate(272)">
    <g id="Grupo_2" data-name="Grupo 2" transform="translate(-253.016 5.633)">
      <path id="Trazado_1" data-name="Trazado 1" d="M-245.8,4.506a32.544,32.544,0,0,1,2.929,2.929A32.457,32.457,0,0,1-245.8,53.241a32.38,32.38,0,0,1-11.015-24.368A32.38,32.38,0,0,1-245.8,4.506Z" transform="translate(256.813 -4.506)" fill="#53bfb6" opacity="0.7" style="isolation: isolate"/>
      <path id="Trazado_2" data-name="Trazado 2" d="M-245.8,4.506a32.544,32.544,0,0,1,2.929,2.929A32.457,32.457,0,0,1-245.8,53.241a32.38,32.38,0,0,1-11.015-24.368A32.38,32.38,0,0,1-245.8,4.506Z" transform="translate(256.813 -4.506)" fill="#53bfb6"/>
      <g id="Grupo_1" data-name="Grupo 1" transform="translate(6.835 9.355)">
        <path id="Trazado_3" data-name="Trazado 3" d="M-247.62,42.016V11.99" transform="translate(252.276 -11.99)" fill="none" stroke="gray" stroke-linecap="round" stroke-linejoin="round" stroke-width="1.117"/>
        <line id="Línea_1" data-name="Línea 1" x1="4.656" y1="9.691" transform="translate(0 3.707)" fill="none" stroke="gray" stroke-linecap="round" stroke-linejoin="round" stroke-width="1.117"/>
        <line id="Línea_2" data-name="Línea 2" y1="7.411" x2="3.705" transform="translate(4.656 17.674)" fill="none" stroke="gray" stroke-linecap="round" stroke-linejoin="round" stroke-width="1.117"/>
      </g>
    </g>
    <rect id="Rectángulo_1" data-name="Rectángulo 1" width="60" height="60" transform="translate(-272)" fill="none"/>
  </g>
</svg>
